<svg version="1.1" xmlns="http://www.w3.org/2000/svg" viewBox="0 0 1049.3595345056383 509.00125034593043" width="1049.3595345056383" height="509.00125034593043">
  <!-- svg-source:excalidraw -->
  
  <defs>
    <style>
      @font-face {
        font-family: "Virgil";
        src: url("https://excalidraw.com/Virgil.woff2");
      }
      @font-face {
        font-family: "Cascadia";
        src: url("https://excalidraw.com/Cascadia.woff2");
      }
    </style>
  </defs>
  <rect x="0" y="0" width="1049.3595345056383" height="509.00125034593043" fill="#ffffff"></rect><g stroke-linecap="round"><g transform="translate(647.518752928621 131.37133140297865) rotate(0 -4.966506834870813 51.825536618733054)" fill-rule="evenodd"><path d="M-62.14 18.86 C-62.14 18.86, -62.14 18.86, -62.14 18.86 M-62.14 18.86 C-62.14 18.86, -62.14 18.86, -62.14 18.86 M-62.67 31.65 C-58.03 26.32, -53.4 20.99, -48.23 15.05 M-62.67 31.65 C-58.66 27.04, -54.65 22.43, -48.23 15.05 M-62.53 43.69 C-52.48 32.12, -42.42 20.56, -33.67 10.48 M-62.53 43.69 C-55.45 35.55, -48.37 27.4, -33.67 10.48 M-63.06 56.49 C-45.65 36.47, -28.25 16.45, -19.1 5.92 M-63.06 56.49 C-47.16 38.2, -31.26 19.91, -19.1 5.92 M-62.92 68.53 C-45.8 48.84, -28.69 29.14, -4.53 1.36 M-62.92 68.53 C-45.09 48.01, -27.26 27.5, -4.53 1.36 M-62.13 79.81 C-39.06 53.27, -15.98 26.72, 4.13 3.59 M-62.13 79.81 C-47.24 62.68, -32.34 45.55, 4.13 3.59 M-54.78 83.55 C-29.62 54.6, -4.45 25.66, 12.13 6.57 M-54.78 83.55 C-37.41 63.56, -20.03 43.57, 12.13 6.57 M-46.78 86.54 C-31.63 69.11, -16.48 51.69, 20.14 9.56 M-46.78 86.54 C-22.45 58.55, 1.89 30.56, 20.14 9.56 M-39.43 90.28 C-25.25 73.96, -11.07 57.65, 27.49 13.3 M-39.43 90.28 C-24.33 72.91, -9.24 55.55, 27.49 13.3 M-31.42 93.26 C-15.59 75.05, 0.24 56.84, 35.5 16.28 M-31.42 93.26 C-11.9 70.8, 7.63 48.34, 35.5 16.28 M-24.07 97 C-8.98 79.63, 6.12 62.27, 43.5 19.27 M-24.07 97 C-4.62 74.63, 14.83 52.25, 43.5 19.27 M-16.07 99.98 C0.35 81.1, 16.76 62.22, 51.51 22.25 M-16.07 99.98 C0.16 81.31, 16.39 62.64, 51.51 22.25 M-8.72 103.72 C14.33 77.21, 37.37 50.71, 58.86 25.99 M-8.72 103.72 C18.2 72.76, 45.12 41.79, 58.86 25.99 M-2.02 108.22 C14.11 89.66, 30.25 71.1, 58.33 38.78 M-2.02 108.22 C13.48 90.39, 28.97 72.56, 58.33 38.78 M14.51 101.39 C27.83 86.07, 41.16 70.74, 58.47 50.83 M14.51 101.39 C26.66 87.42, 38.81 73.44, 58.47 50.83 M31.05 94.56 C41.52 82.51, 52 70.46, 57.94 63.62 M31.05 94.56 C39.3 85.07, 47.55 75.58, 57.94 63.62" stroke="#be4bdb" stroke-width="1" fill="none"></path><path d="M0 0 C-21.77 6.69, -43.53 13.39, -62.44 19.2 M0 0 C-12.93 3.98, -25.87 7.95, -62.44 19.2 M-62.44 19.2 C-62.68 38.85, -62.92 58.49, -63.18 79.44 M-62.44 19.2 C-62.62 34.01, -62.8 48.82, -63.18 79.44 M-63.18 79.44 C-44.14 87.73, -25.11 96.03, -7.62 103.65 M-63.18 79.44 C-46.79 86.58, -30.41 93.72, -7.62 103.65 M-7.62 103.65 C4.95 98.48, 17.53 93.31, 51.96 79.16 M-7.62 103.65 C7.96 97.25, 23.54 90.84, 51.96 79.16 M51.96 79.16 C52.47 56.11, 52.98 33.07, 53.24 21.29 M51.96 79.16 C52.41 59.03, 52.85 38.89, 53.24 21.29 M53.24 21.29 C39.79 15.91, 26.34 10.53, 0 0 M53.24 21.29 C33.39 13.35, 13.54 5.41, 0 0 M0 0 C0 0, 0 0, 0 0 M0 0 C0 0, 0 0, 0 0" stroke="#881fa3" stroke-width="2" fill="none"></path></g></g><g stroke-linecap="round"><g transform="translate(133.10093676651155 308.535485455713) rotate(0 -4.966506834870771 51.825536618733054)" fill-rule="evenodd"><path d="M-62.14 18.86 C-62.14 18.86, -62.14 18.86, -62.14 18.86 M-62.14 18.86 C-62.14 18.86, -62.14 18.86, -62.14 18.86 M-62.67 31.65 C-58.93 27.35, -55.19 23.05, -48.23 15.05 M-62.67 31.65 C-59.04 27.48, -55.41 23.31, -48.23 15.05 M-62.53 43.69 C-53.21 32.96, -43.88 22.24, -33.67 10.48 M-62.53 43.69 C-54.88 34.89, -47.24 26.1, -33.67 10.48 M-63.06 56.49 C-46.82 37.81, -30.58 19.13, -19.1 5.92 M-63.06 56.49 C-54.2 46.3, -45.35 36.12, -19.1 5.92 M-62.92 68.53 C-41.89 44.34, -20.86 20.14, -4.53 1.36 M-62.92 68.53 C-49.96 53.61, -36.99 38.7, -4.53 1.36 M-62.13 79.81 C-45.24 60.38, -28.34 40.94, 4.13 3.59 M-62.13 79.81 C-39.64 53.94, -17.15 28.07, 4.13 3.59 M-54.78 83.55 C-38.81 65.17, -22.83 46.79, 12.13 6.57 M-54.78 83.55 C-32.1 57.46, -9.42 31.37, 12.13 6.57 M-46.78 86.54 C-30.03 67.28, -13.29 48.01, 20.14 9.56 M-46.78 86.54 C-33.33 71.07, -19.89 55.61, 20.14 9.56 M-39.43 90.28 C-25.4 74.14, -11.37 58, 27.49 13.3 M-39.43 90.28 C-24.55 73.16, -9.68 56.05, 27.49 13.3 M-31.42 93.26 C-8.18 66.52, 15.07 39.78, 35.5 16.28 M-31.42 93.26 C-15.45 74.89, 0.51 56.52, 35.5 16.28 M-24.07 97 C-8.43 79.01, 7.21 61.01, 43.5 19.27 M-24.07 97 C-0.7 70.11, 22.67 43.22, 43.5 19.27 M-16.07 99.98 C3.96 76.94, 23.99 53.91, 51.51 22.25 M-16.07 99.98 C5.72 74.92, 27.51 49.86, 51.51 22.25 M-8.72 103.72 C9.57 82.69, 27.86 61.65, 58.86 25.99 M-8.72 103.72 C14.98 76.46, 38.68 49.19, 58.86 25.99 M-2.02 108.22 C16.4 87.03, 34.81 65.84, 58.33 38.78 M-2.02 108.22 C12.43 91.59, 26.88 74.97, 58.33 38.78 M14.51 101.39 C23.36 91.21, 32.21 81.03, 58.47 50.83 M14.51 101.39 C29.68 83.95, 44.84 66.5, 58.47 50.83 M31.05 94.56 C40.17 84.06, 49.3 73.57, 57.94 63.62 M31.05 94.56 C41.64 82.38, 52.23 70.19, 57.94 63.62" stroke="#be4bdb" stroke-width="1" fill="none"></path><path d="M0 0 C-19.09 5.87, -38.18 11.74, -62.44 19.2 M0 0 C-20.1 6.18, -40.19 12.36, -62.44 19.2 M-62.44 19.2 C-62.7 40.08, -62.95 60.97, -63.18 79.44 M-62.44 19.2 C-62.63 34.51, -62.82 49.82, -63.18 79.44 M-63.18 79.44 C-51.91 84.35, -40.65 89.26, -7.62 103.65 M-63.18 79.44 C-50.31 85.04, -37.45 90.65, -7.62 103.65 M-7.62 103.65 C8.45 97.05, 24.52 90.44, 51.96 79.16 M-7.62 103.65 C15.88 93.99, 39.37 84.34, 51.96 79.16 M51.96 79.16 C52.37 60.89, 52.77 42.63, 53.24 21.29 M51.96 79.16 C52.42 58.39, 52.88 37.61, 53.24 21.29 M53.24 21.29 C36.79 14.71, 20.33 8.13, 0 0 M53.24 21.29 C35.15 14.05, 17.07 6.82, 0 0 M0 0 C0 0, 0 0, 0 0 M0 0 C0 0, 0 0, 0 0" stroke="#881fa3" stroke-width="2" fill="none"></path></g></g><g stroke-linecap="round"><g transform="translate(977.518508787996 359.162438580713) rotate(0 -4.966506834870813 51.825536618733054)" fill-rule="evenodd"><path d="M-62.14 18.86 C-62.14 18.86, -62.14 18.86, -62.14 18.86 M-62.14 18.86 C-62.14 18.86, -62.14 18.86, -62.14 18.86 M-62.67 31.65 C-58.97 27.4, -55.28 23.15, -48.23 15.05 M-62.67 31.65 C-57 25.14, -51.34 18.63, -48.23 15.05 M-62.53 43.69 C-55.26 35.32, -47.98 26.95, -33.67 10.48 M-62.53 43.69 C-54.98 35, -47.42 26.31, -33.67 10.48 M-63.06 56.49 C-53.08 45.02, -43.11 33.54, -19.1 5.92 M-63.06 56.49 C-49.79 41.23, -36.53 25.98, -19.1 5.92 M-62.92 68.53 C-49.3 52.86, -35.68 37.19, -4.53 1.36 M-62.92 68.53 C-50.51 54.25, -38.1 39.97, -4.53 1.36 M-62.13 79.81 C-43.11 57.93, -24.09 36.05, 4.13 3.59 M-62.13 79.81 C-40.25 54.64, -18.37 29.47, 4.13 3.59 M-54.78 83.55 C-35.02 60.82, -15.26 38.08, 12.13 6.57 M-54.78 83.55 C-38.2 64.48, -21.63 45.41, 12.13 6.57 M-46.78 86.54 C-27.75 64.65, -8.73 42.77, 20.14 9.56 M-46.78 86.54 C-24.19 60.55, -1.6 34.57, 20.14 9.56 M-39.43 90.28 C-17.52 65.07, 4.39 39.86, 27.49 13.3 M-39.43 90.28 C-14.47 61.56, 10.5 32.85, 27.49 13.3 M-31.42 93.26 C-6.4 64.48, 18.62 35.69, 35.5 16.28 M-31.42 93.26 C-14.65 73.97, 2.12 54.68, 35.5 16.28 M-24.07 97 C1.36 67.74, 26.8 38.48, 43.5 19.27 M-24.07 97 C-9.78 80.56, 4.5 64.13, 43.5 19.27 M-16.07 99.98 C5.51 75.16, 27.09 50.34, 51.51 22.25 M-16.07 99.98 C8.5 71.73, 33.06 43.47, 51.51 22.25 M-8.72 103.72 C14.73 76.75, 38.18 49.78, 58.86 25.99 M-8.72 103.72 C11.77 80.15, 32.26 56.59, 58.86 25.99 M-2.02 108.22 C21.62 81.02, 45.25 53.83, 58.33 38.78 M-2.02 108.22 C12.31 91.73, 26.65 75.23, 58.33 38.78 M14.51 101.39 C27.77 86.14, 41.03 70.88, 58.47 50.83 M14.51 101.39 C23.55 90.99, 32.6 80.59, 58.47 50.83 M31.05 94.56 C38.3 86.22, 45.56 77.87, 57.94 63.62 M31.05 94.56 C36.46 88.34, 41.87 82.11, 57.94 63.62" stroke="#be4bdb" stroke-width="1" fill="none"></path><path d="M0 0 C-17.79 5.47, -35.58 10.94, -62.44 19.2 M0 0 C-18.84 5.79, -37.67 11.58, -62.44 19.2 M-62.44 19.2 C-62.65 35.94, -62.85 52.69, -63.18 79.44 M-62.44 19.2 C-62.73 42.44, -63.01 65.68, -63.18 79.44 M-63.18 79.44 C-45.44 87.17, -27.7 94.9, -7.62 103.65 M-63.18 79.44 C-47.15 86.42, -31.11 93.41, -7.62 103.65 M-7.62 103.65 C14.44 94.58, 36.49 85.52, 51.96 79.16 M-7.62 103.65 C5.14 98.41, 17.9 93.16, 51.96 79.16 M51.96 79.16 C52.39 60.05, 52.81 40.93, 53.24 21.29 M51.96 79.16 C52.25 66, 52.55 52.84, 53.24 21.29 M53.24 21.29 C33.81 13.51, 14.37 5.74, 0 0 M53.24 21.29 C38.58 15.42, 23.92 9.56, 0 0 M0 0 C0 0, 0 0, 0 0 M0 0 C0 0, 0 0, 0 0" stroke="#881fa3" stroke-width="2" fill="none"></path></g></g><g stroke-linecap="round"><g transform="translate(978.474075194246 200.59529990883803) rotate(0 -4.966506834870813 51.825536618733054)" fill-rule="evenodd"><path d="M-62.14 18.86 C-62.14 18.86, -62.14 18.86, -62.14 18.86 M-62.14 18.86 C-62.14 18.86, -62.14 18.86, -62.14 18.86 M-62.67 31.65 C-58.27 26.59, -53.87 21.53, -48.23 15.05 M-62.67 31.65 C-58.76 27.16, -54.86 22.67, -48.23 15.05 M-62.53 43.69 C-56.62 36.89, -50.7 30.08, -33.67 10.48 M-62.53 43.69 C-56.31 36.53, -50.08 29.37, -33.67 10.48 M-63.06 56.49 C-50.97 42.58, -38.88 28.68, -19.1 5.92 M-63.06 56.49 C-51.79 43.53, -40.52 30.56, -19.1 5.92 M-62.92 68.53 C-48.67 52.13, -34.42 35.74, -4.53 1.36 M-62.92 68.53 C-50.56 54.3, -38.19 40.08, -4.53 1.36 M-62.13 79.81 C-36.36 50.16, -10.58 20.51, 4.13 3.59 M-62.13 79.81 C-48.73 64.4, -35.33 48.98, 4.13 3.59 M-54.78 83.55 C-30.56 55.69, -6.34 27.82, 12.13 6.57 M-54.78 83.55 C-29.95 54.99, -5.12 26.43, 12.13 6.57 M-46.78 86.54 C-25.44 62, -4.11 37.45, 20.14 9.56 M-46.78 86.54 C-26.28 62.96, -5.79 39.39, 20.14 9.56 M-39.43 90.28 C-16.21 63.56, 7.02 36.85, 27.49 13.3 M-39.43 90.28 C-15.16 62.36, 9.1 34.45, 27.49 13.3 M-31.42 93.26 C-5.05 62.93, 21.31 32.6, 35.5 16.28 M-31.42 93.26 C-12.45 71.44, 6.52 49.61, 35.5 16.28 M-24.07 97 C-4.12 74.05, 15.83 51.1, 43.5 19.27 M-24.07 97 C-2.26 71.91, 19.54 46.83, 43.5 19.27 M-16.07 99.98 C4.35 76.49, 24.78 53, 51.51 22.25 M-16.07 99.98 C1.94 79.28, 19.94 58.57, 51.51 22.25 M-8.72 103.72 C12.27 79.58, 33.26 55.43, 58.86 25.99 M-8.72 103.72 C15.27 76.14, 39.25 48.55, 58.86 25.99 M-2.02 108.22 C21.44 81.23, 44.89 54.25, 58.33 38.78 M-2.02 108.22 C16.36 87.07, 34.74 65.92, 58.33 38.78 M14.51 101.39 C23.52 91.03, 32.52 80.67, 58.47 50.83 M14.51 101.39 C24.61 89.77, 34.71 78.15, 58.47 50.83 M31.05 94.56 C40.64 83.53, 50.23 72.5, 57.94 63.62 M31.05 94.56 C38.17 86.37, 45.29 78.18, 57.94 63.62" stroke="#be4bdb" stroke-width="1" fill="none"></path><path d="M0 0 C-15.44 4.75, -30.88 9.49, -62.44 19.2 M0 0 C-16.76 5.15, -33.51 10.3, -62.44 19.2 M-62.44 19.2 C-62.62 33.87, -62.8 48.55, -63.18 79.44 M-62.44 19.2 C-62.61 33.16, -62.78 47.13, -63.18 79.44 M-63.18 79.44 C-46.23 86.82, -29.29 94.21, -7.62 103.65 M-63.18 79.44 C-43.7 87.93, -24.22 96.41, -7.62 103.65 M-7.62 103.65 C15.88 93.99, 39.38 84.33, 51.96 79.16 M-7.62 103.65 C5.65 98.19, 18.93 92.74, 51.96 79.16 M51.96 79.16 C52.47 56.18, 52.98 33.2, 53.24 21.29 M51.96 79.16 C52.44 57.59, 52.92 36.03, 53.24 21.29 M53.24 21.29 C34.67 13.86, 16.09 6.43, 0 0 M53.24 21.29 C33.42 13.36, 13.6 5.44, 0 0 M0 0 C0 0, 0 0, 0 0 M0 0 C0 0, 0 0, 0 0" stroke="#881fa3" stroke-width="2" fill="none"></path></g></g><g stroke-linecap="round"><g transform="translate(986.1158598622147 42.02810020180678) rotate(0 -4.966506834870813 51.825536618733054)" fill-rule="evenodd"><path d="M-62.14 18.86 C-62.14 18.86, -62.14 18.86, -62.14 18.86 M-62.14 18.86 C-62.14 18.86, -62.14 18.86, -62.14 18.86 M-62.67 31.65 C-59.74 28.28, -56.81 24.92, -48.23 15.05 M-62.67 31.65 C-59.63 28.16, -56.59 24.66, -48.23 15.05 M-62.53 43.69 C-53.07 32.81, -43.62 21.93, -33.67 10.48 M-62.53 43.69 C-55.95 36.12, -49.38 28.56, -33.67 10.48 M-63.06 56.49 C-54.03 46.11, -45.01 35.73, -19.1 5.92 M-63.06 56.49 C-51.64 43.35, -40.22 30.22, -19.1 5.92 M-62.92 68.53 C-39.89 42.03, -16.85 15.53, -4.53 1.36 M-62.92 68.53 C-48.84 52.33, -34.76 36.13, -4.53 1.36 M-62.13 79.81 C-43.17 58, -24.21 36.19, 4.13 3.59 M-62.13 79.81 C-37.37 51.33, -12.6 22.84, 4.13 3.59 M-54.78 83.55 C-39.35 65.8, -23.92 48.05, 12.13 6.57 M-54.78 83.55 C-31.52 56.79, -8.25 30.02, 12.13 6.57 M-46.78 86.54 C-22.25 58.32, 2.28 30.1, 20.14 9.56 M-46.78 86.54 C-29.13 66.24, -11.49 45.94, 20.14 9.56 M-39.43 90.28 C-16.11 63.45, 7.22 36.62, 27.49 13.3 M-39.43 90.28 C-22.38 70.67, -5.33 51.05, 27.49 13.3 M-31.42 93.26 C-6.3 64.36, 18.82 35.46, 35.5 16.28 M-31.42 93.26 C-17.5 77.24, -3.57 61.22, 35.5 16.28 M-24.07 97 C-2.55 72.24, 18.98 47.48, 43.5 19.27 M-24.07 97 C2.08 66.92, 28.23 36.83, 43.5 19.27 M-16.07 99.98 C7.55 72.81, 31.17 45.64, 51.51 22.25 M-16.07 99.98 C7.77 72.57, 31.6 45.15, 51.51 22.25 M-8.72 103.72 C9.45 82.83, 27.61 61.93, 58.86 25.99 M-8.72 103.72 C17.38 73.7, 43.48 43.68, 58.86 25.99 M-2.02 108.22 C18.1 85.07, 38.23 61.92, 58.33 38.78 M-2.02 108.22 C10.67 93.62, 23.36 79.01, 58.33 38.78 M14.51 101.39 C31.45 81.91, 48.39 62.42, 58.47 50.83 M14.51 101.39 C23.8 90.71, 33.09 80.02, 58.47 50.83 M31.05 94.56 C38.56 85.92, 46.08 77.27, 57.94 63.62 M31.05 94.56 C40.76 83.39, 50.47 72.22, 57.94 63.62" stroke="#be4bdb" stroke-width="1" fill="none"></path><path d="M0 0 C-14.25 4.38, -28.51 8.77, -62.44 19.2 M0 0 C-17.85 5.49, -35.69 10.97, -62.44 19.2 M-62.44 19.2 C-62.68 38.82, -62.92 58.44, -63.18 79.44 M-62.44 19.2 C-62.63 34.87, -62.82 50.54, -63.18 79.44 M-63.18 79.44 C-48.07 86.02, -32.96 92.61, -7.62 103.65 M-63.18 79.44 C-43.98 87.81, -24.77 96.17, -7.62 103.65 M-7.62 103.65 C15.29 94.23, 38.21 84.81, 51.96 79.16 M-7.62 103.65 C12.1 95.55, 31.82 87.44, 51.96 79.16 M51.96 79.16 C52.46 56.72, 52.96 34.28, 53.24 21.29 M51.96 79.16 C52.34 61.98, 52.72 44.81, 53.24 21.29 M53.24 21.29 C35.11 14.03, 16.97 6.78, 0 0 M53.24 21.29 C40.61 16.24, 27.99 11.19, 0 0 M0 0 C0 0, 0 0, 0 0 M0 0 C0 0, 0 0, 0 0" stroke="#881fa3" stroke-width="2" fill="none"></path></g></g><g transform="translate(610.3880004882814 242.62975986741483) rotate(0 32.5 13)"><text x="0" y="18" font-family="Virgil, Segoe UI Emoji" font-size="20px" fill="#000000" text-anchor="start" style="white-space: pre;" direction="ltr">Papapi</text></g><g transform="translate(10 420.7492361857742) rotate(0 121 13)"><text x="0" y="18" font-family="Virgil, Segoe UI Emoji" font-size="20px" fill="#000000" text-anchor="start" style="white-space: pre;" direction="ltr">Another Service/Backend</text></g><g transform="translate(927.0148315429689 469.46560581468043) rotate(0 34.5 13)"><text x="0" y="18" font-family="Virgil, Segoe UI Emoji" font-size="20px" fill="#000000" text-anchor="start" style="white-space: pre;" direction="ltr">Paynow</text></g><g transform="translate(928.9254760742189 309.94326694749293) rotate(0 34.5 13)"><text x="0" y="18" font-family="Virgil, Segoe UI Emoji" font-size="20px" fill="#000000" text-anchor="start" style="white-space: pre;" direction="ltr">PayPal</text></g><g transform="translate(936.5672607421876 151.3760672404617) rotate(0 29 13)"><text x="0" y="18" font-family="Virgil, Segoe UI Emoji" font-size="20px" fill="#000000" text-anchor="start" style="white-space: pre;" direction="ltr">Stripe</text></g><g stroke-linecap="round" transform="translate(95.5918706583067 10) rotate(0 35.408220894427785 54.15214451096951)"><path d="M0 0 L70.82 0 L70.82 108.3 L0 108.3" stroke="none" stroke-width="0" fill="#ced4da"></path><path d="M0 0 C26 0, 52 0, 70.82 0 M0 0 C14.95 0, 29.89 0, 70.82 0 M70.82 0 C70.82 38.81, 70.82 77.62, 70.82 108.3 M70.82 0 C70.82 28.9, 70.82 57.8, 70.82 108.3 M70.82 108.3 C42.59 108.3, 14.35 108.3, 0 108.3 M70.82 108.3 C51.7 108.3, 32.58 108.3, 0 108.3 M0 108.3 C0 67.65, 0 26.99, 0 0 M0 108.3 C0 84.91, 0 61.51, 0 0" stroke="#000000" stroke-width="2" fill="none"></path></g><g stroke-linecap="round" transform="translate(103.6995747483983 18.257181350396934) rotate(0 27.900581767571623 41.416394476878835)"><path d="M0 0 L55.8 0 L55.8 82.83 L0 82.83" stroke="none" stroke-width="0" fill="#fff"></path><path d="M0 0 C16.8 0, 33.6 0, 55.8 0 M0 0 C16.66 0, 33.31 0, 55.8 0 M55.8 0 C55.8 22.09, 55.8 44.17, 55.8 82.83 M55.8 0 C55.8 19.28, 55.8 38.55, 55.8 82.83 M55.8 82.83 C43.9 82.83, 32 82.83, 0 82.83 M55.8 82.83 C39.76 82.83, 23.73 82.83, 0 82.83 M0 82.83 C0 66.13, 0 49.43, 0 0 M0 82.83 C0 55.49, 0 28.14, 0 0" stroke="#000000" stroke-width="2" fill="none"></path></g><g stroke-linecap="round" transform="translate(125.88624451275044 104.63486447298172) rotate(0 5.713912003219434 5.713912003219434)"><path d="M11.43 5.71 C11.43 6.04, 11.4 6.38, 11.34 6.71 C11.28 7.03, 11.2 7.36, 11.08 7.67 C10.97 7.98, 10.83 8.28, 10.66 8.57 C10.5 8.86, 10.3 9.13, 10.09 9.39 C9.88 9.64, 9.64 9.88, 9.39 10.09 C9.13 10.3, 8.86 10.5, 8.57 10.66 C8.28 10.83, 7.98 10.97, 7.67 11.08 C7.36 11.2, 7.03 11.28, 6.71 11.34 C6.38 11.4, 6.04 11.43, 5.71 11.43 C5.38 11.43, 5.05 11.4, 4.72 11.34 C4.4 11.28, 4.07 11.2, 3.76 11.08 C3.45 10.97, 3.14 10.83, 2.86 10.66 C2.57 10.5, 2.29 10.3, 2.04 10.09 C1.79 9.88, 1.55 9.64, 1.34 9.39 C1.12 9.13, 0.93 8.86, 0.77 8.57 C0.6 8.28, 0.46 7.98, 0.34 7.67 C0.23 7.36, 0.14 7.03, 0.09 6.71 C0.03 6.38, 0 6.04, 0 5.71 C0 5.38, 0.03 5.05, 0.09 4.72 C0.14 4.4, 0.23 4.07, 0.34 3.76 C0.46 3.45, 0.6 3.14, 0.77 2.86 C0.93 2.57, 1.12 2.29, 1.34 2.04 C1.55 1.79, 1.79 1.55, 2.04 1.34 C2.29 1.12, 2.57 0.93, 2.86 0.77 C3.14 0.6, 3.45 0.46, 3.76 0.34 C4.07 0.23, 4.4 0.14, 4.72 0.09 C5.05 0.03, 5.38 0, 5.71 0 C6.04 0, 6.38 0.03, 6.71 0.09 C7.03 0.14, 7.36 0.23, 7.67 0.34 C7.98 0.46, 8.28 0.6, 8.57 0.77 C8.86 0.93, 9.13 1.12, 9.39 1.34 C9.64 1.55, 9.88 1.79, 10.09 2.04 C10.3 2.29, 10.5 2.57, 10.66 2.86 C10.83 3.14, 10.97 3.45, 11.08 3.76 C11.2 4.07, 11.28 4.4, 11.34 4.72 C11.4 5.05, 11.41 5.55, 11.43 5.71 C11.44 5.88, 11.44 5.55, 11.43 5.71" stroke="none" stroke-width="0" fill="#fff"></path><path d="M11.43 5.71 C11.43 6.04, 11.4 6.38, 11.34 6.71 C11.28 7.03, 11.2 7.36, 11.08 7.67 C10.97 7.98, 10.83 8.28, 10.66 8.57 C10.5 8.86, 10.3 9.13, 10.09 9.39 C9.88 9.64, 9.64 9.88, 9.39 10.09 C9.13 10.3, 8.86 10.5, 8.57 10.66 C8.28 10.83, 7.98 10.97, 7.67 11.08 C7.36 11.2, 7.03 11.28, 6.71 11.34 C6.38 11.4, 6.04 11.43, 5.71 11.43 C5.38 11.43, 5.05 11.4, 4.72 11.34 C4.4 11.28, 4.07 11.2, 3.76 11.08 C3.45 10.97, 3.14 10.83, 2.86 10.66 C2.57 10.5, 2.29 10.3, 2.04 10.09 C1.79 9.88, 1.55 9.64, 1.34 9.39 C1.12 9.13, 0.93 8.86, 0.77 8.57 C0.6 8.28, 0.46 7.98, 0.34 7.67 C0.23 7.36, 0.14 7.03, 0.09 6.71 C0.03 6.38, 0 6.04, 0 5.71 C0 5.38, 0.03 5.05, 0.09 4.72 C0.14 4.4, 0.23 4.07, 0.34 3.76 C0.46 3.45, 0.6 3.14, 0.77 2.86 C0.93 2.57, 1.12 2.29, 1.34 2.04 C1.55 1.79, 1.79 1.55, 2.04 1.34 C2.29 1.12, 2.57 0.93, 2.86 0.77 C3.14 0.6, 3.45 0.46, 3.76 0.34 C4.07 0.23, 4.4 0.14, 4.72 0.09 C5.05 0.03, 5.38 0, 5.71 0 C6.04 0, 6.38 0.03, 6.71 0.09 C7.03 0.14, 7.36 0.23, 7.67 0.34 C7.98 0.46, 8.28 0.6, 8.57 0.77 C8.86 0.93, 9.13 1.12, 9.39 1.34 C9.64 1.55, 9.88 1.79, 10.09 2.04 C10.3 2.29, 10.5 2.57, 10.66 2.86 C10.83 3.14, 10.97 3.45, 11.08 3.76 C11.2 4.07, 11.28 4.4, 11.34 4.72 C11.4 5.05, 11.41 5.55, 11.43 5.71 C11.44 5.88, 11.44 5.55, 11.43 5.71" stroke="#000000" stroke-width="2" fill="none"></path></g><g stroke-linecap="round" transform="translate(111.9792651483688 28.80133802653711) rotate(0 19.620891367601104 9.944730235592885)"><path d="M0 0 C0 0, 0 0, 0 0 M0 0 C0 0, 0 0, 0 0 M0.13 12.04 C3.63 8.02, 7.12 4.01, 10.63 -0.03 M0.13 12.04 C4.27 7.28, 8.4 2.53, 10.63 -0.03 M2.23 21.82 C6.7 16.68, 11.16 11.55, 21.26 -0.07 M2.23 21.82 C6.59 16.81, 10.94 11.8, 21.26 -0.07 M12.86 21.78 C18.97 14.76, 25.08 7.73, 31.89 -0.1 M12.86 21.78 C18.15 15.7, 23.43 9.62, 31.89 -0.1 M23.49 21.75 C29.67 14.65, 35.84 7.55, 41.21 1.37 M23.49 21.75 C27.84 16.75, 32.18 11.75, 41.21 1.37 M34.12 21.71 C36.98 18.43, 39.84 15.14, 41.34 13.41 M34.12 21.71 C36.73 18.71, 39.34 15.71, 41.34 13.41 M-0.04 19.86 C-0.04 19.86, -0.04 19.86, -0.04 19.86 M-0.04 19.86 C-0.04 19.86, -0.04 19.86, -0.04 19.86 M12 19.72 C7.8 16.07, 3.59 12.41, -0.07 9.23 M12 19.72 C9.29 17.36, 6.58 15.01, -0.07 9.23 M24.04 19.59 C15.25 11.94, 6.45 4.29, 0.65 -0.75 M24.04 19.59 C17.97 14.31, 11.89 9.03, 0.65 -0.75 M36.84 20.11 C31.37 15.36, 25.91 10.61, 12.69 -0.88 M36.84 20.11 C28.06 12.48, 19.28 4.85, 12.69 -0.88 M43.6 15.39 C39.6 11.91, 35.6 8.44, 24.73 -1.01 M43.6 15.39 C39.34 11.69, 35.09 7.99, 24.73 -1.01 M43.56 4.76 C42.14 3.52, 40.71 2.28, 37.53 -0.49 M43.56 4.76 C41.8 3.23, 40.04 1.7, 37.53 -0.49" stroke="#fab005" stroke-width="1" fill="none"></path><path d="M0 0 C12.8 0, 25.6 0, 39.24 0 M0 0 C9.65 0, 19.3 0, 39.24 0 M39.24 0 C39.24 6.81, 39.24 13.63, 39.24 19.89 M39.24 0 C39.24 5.86, 39.24 11.73, 39.24 19.89 M39.24 19.89 C30.96 19.89, 22.68 19.89, 0 19.89 M39.24 19.89 C28.98 19.89, 18.72 19.89, 0 19.89 M0 19.89 C0 11.97, 0 4.05, 0 0 M0 19.89 C0 12.97, 0 6.05, 0 0" stroke="#000000" stroke-width="2" fill="none"></path></g><g stroke-linecap="round" transform="translate(111.9792651483688 64.35909807149156) rotate(0 19.620891367601104 9.944730235592885)"><path d="M0 0 C0 0, 0 0, 0 0 M0 0 C0 0, 0 0, 0 0 M0.13 12.04 C3.64 8, 7.15 3.96, 10.63 -0.03 M0.13 12.04 C3.38 8.31, 6.63 4.57, 10.63 -0.03 M2.23 21.82 C8.33 14.8, 14.43 7.79, 21.26 -0.07 M2.23 21.82 C8.06 15.11, 13.9 8.4, 21.26 -0.07 M12.86 21.78 C17.73 16.18, 22.6 10.58, 31.89 -0.1 M12.86 21.78 C20.33 13.2, 27.79 4.61, 31.89 -0.1 M23.49 21.75 C27.96 16.61, 32.42 11.48, 41.21 1.37 M23.49 21.75 C28.13 16.42, 32.77 11.08, 41.21 1.37 M34.12 21.71 C35.76 19.83, 37.4 17.95, 41.34 13.41 M34.12 21.71 C36.3 19.21, 38.48 16.7, 41.34 13.41 M-0.04 19.86 C-0.04 19.86, -0.04 19.86, -0.04 19.86 M-0.04 19.86 C-0.04 19.86, -0.04 19.86, -0.04 19.86 M12 19.72 C8.54 16.71, 5.07 13.7, -0.07 9.23 M12 19.72 C8.02 16.26, 4.03 12.79, -0.07 9.23 M24.04 19.59 C17.14 13.58, 10.23 7.58, 0.65 -0.75 M24.04 19.59 C18.25 14.55, 12.45 9.51, 0.65 -0.75 M36.84 20.11 C29.98 14.15, 23.11 8.18, 12.69 -0.88 M36.84 20.11 C28.69 13.03, 20.54 5.94, 12.69 -0.88 M43.6 15.39 C37.42 10.02, 31.24 4.65, 24.73 -1.01 M43.6 15.39 C36.56 9.27, 29.52 3.15, 24.73 -1.01 M43.56 4.76 C41.31 2.8, 39.05 0.83, 37.53 -0.49 M43.56 4.76 C42.05 3.44, 40.54 2.13, 37.53 -0.49" stroke="#fab005" stroke-width="1" fill="none"></path><path d="M0 0 C10.91 0, 21.82 0, 39.24 0 M0 0 C15.14 0, 30.28 0, 39.24 0 M39.24 0 C39.24 6.35, 39.24 12.7, 39.24 19.89 M39.24 0 C39.24 5.74, 39.24 11.48, 39.24 19.89 M39.24 19.89 C24.72 19.89, 10.19 19.89, 0 19.89 M39.24 19.89 C30.84 19.89, 22.43 19.89, 0 19.89 M0 19.89 C0 13.32, 0 6.75, 0 0 M0 19.89 C0 15.37, 0 10.84, 0 0" stroke="#000000" stroke-width="2" fill="none"></path></g><g stroke-linecap="round" transform="translate(72.25275661972984 165.9284731421354) rotate(0 63.94191786606946 38.268516949888834)"><path d="M0 0 C31.15 0, 62.3 0, 127.88 0 M0 0 C29.64 0, 59.29 0, 127.88 0 M127.88 0 C127.88 23.34, 127.88 46.69, 127.88 76.54 M127.88 0 C127.88 26.83, 127.88 53.66, 127.88 76.54 M127.88 76.54 C77.45 76.54, 27.01 76.54, 0 76.54 M127.88 76.54 C99.4 76.54, 70.91 76.54, 0 76.54 M0 76.54 C0 46.15, 0 15.75, 0 0 M0 76.54 C0 48.02, 0 19.5, 0 0" stroke="#000000" stroke-width="2" fill="none"></path></g><g stroke-linecap="round"><g transform="translate(71.17715886883461 176.64500753437957) rotate(0 64.42096614922215 0)"><path d="M0 0 C41.97 0, 83.94 0, 128.84 0 M0 0 C33.52 0, 67.04 0, 128.84 0" stroke="#000000" stroke-width="2" fill="none"></path></g></g><g stroke-linecap="round" transform="translate(76.74079208868471 170.20004294214422) rotate(0 2.5009765625 2.5009765625)"><path d="M5 2.5 C5 2.65, 4.99 2.79, 4.96 2.94 C4.94 3.08, 4.9 3.22, 4.85 3.36 C4.8 3.49, 4.74 3.63, 4.67 3.75 C4.59 3.88, 4.51 4, 4.42 4.11 C4.32 4.22, 4.22 4.32, 4.11 4.42 C4 4.51, 3.88 4.59, 3.75 4.67 C3.63 4.74, 3.49 4.8, 3.36 4.85 C3.22 4.9, 3.08 4.94, 2.94 4.96 C2.79 4.99, 2.65 5, 2.5 5 C2.36 5, 2.21 4.99, 2.07 4.96 C1.92 4.94, 1.78 4.9, 1.65 4.85 C1.51 4.8, 1.38 4.74, 1.25 4.67 C1.13 4.59, 1 4.51, 0.89 4.42 C0.78 4.32, 0.68 4.22, 0.59 4.11 C0.49 4, 0.41 3.88, 0.34 3.75 C0.26 3.63, 0.2 3.49, 0.15 3.36 C0.1 3.22, 0.06 3.08, 0.04 2.94 C0.01 2.79, 0 2.65, 0 2.5 C0 2.36, 0.01 2.21, 0.04 2.07 C0.06 1.92, 0.1 1.78, 0.15 1.65 C0.2 1.51, 0.26 1.38, 0.34 1.25 C0.41 1.13, 0.49 1, 0.59 0.89 C0.68 0.78, 0.78 0.68, 0.89 0.59 C1 0.49, 1.13 0.41, 1.25 0.34 C1.38 0.26, 1.51 0.2, 1.65 0.15 C1.78 0.1, 1.92 0.06, 2.07 0.04 C2.21 0.01, 2.36 0, 2.5 0 C2.65 0, 2.79 0.01, 2.94 0.04 C3.08 0.06, 3.22 0.1, 3.36 0.15 C3.49 0.2, 3.63 0.26, 3.75 0.34 C3.88 0.41, 4 0.49, 4.11 0.59 C4.22 0.68, 4.32 0.78, 4.42 0.89 C4.51 1, 4.59 1.13, 4.67 1.25 C4.74 1.38, 4.8 1.51, 4.85 1.65 C4.9 1.78, 4.94 1.92, 4.96 2.07 C4.99 2.21, 5 2.43, 5 2.5 C5.01 2.57, 5.01 2.43, 5 2.5" stroke="none" stroke-width="0" fill="#fa5252"></path><path d="M5 2.5 C5 2.65, 4.99 2.79, 4.96 2.94 C4.94 3.08, 4.9 3.22, 4.85 3.36 C4.8 3.49, 4.74 3.63, 4.67 3.75 C4.59 3.88, 4.51 4, 4.42 4.11 C4.32 4.22, 4.22 4.32, 4.11 4.42 C4 4.51, 3.88 4.59, 3.75 4.67 C3.63 4.74, 3.49 4.8, 3.36 4.85 C3.22 4.9, 3.08 4.94, 2.94 4.96 C2.79 4.99, 2.65 5, 2.5 5 C2.36 5, 2.21 4.99, 2.07 4.96 C1.92 4.94, 1.78 4.9, 1.65 4.85 C1.51 4.8, 1.38 4.74, 1.25 4.67 C1.13 4.59, 1 4.51, 0.89 4.42 C0.78 4.32, 0.68 4.22, 0.59 4.11 C0.49 4, 0.41 3.88, 0.34 3.75 C0.26 3.63, 0.2 3.49, 0.15 3.36 C0.1 3.22, 0.06 3.08, 0.04 2.94 C0.01 2.79, 0 2.65, 0 2.5 C0 2.36, 0.01 2.21, 0.04 2.07 C0.06 1.92, 0.1 1.78, 0.15 1.65 C0.2 1.51, 0.26 1.38, 0.34 1.25 C0.41 1.13, 0.49 1, 0.59 0.89 C0.68 0.78, 0.78 0.68, 0.89 0.59 C1 0.49, 1.13 0.41, 1.25 0.34 C1.38 0.26, 1.51 0.2, 1.65 0.15 C1.78 0.1, 1.92 0.06, 2.07 0.04 C2.21 0.01, 2.36 0, 2.5 0 C2.65 0, 2.79 0.01, 2.94 0.04 C3.08 0.06, 3.22 0.1, 3.36 0.15 C3.49 0.2, 3.63 0.26, 3.75 0.34 C3.88 0.41, 4 0.49, 4.11 0.59 C4.22 0.68, 4.32 0.78, 4.42 0.89 C4.51 1, 4.59 1.13, 4.67 1.25 C4.74 1.38, 4.8 1.51, 4.85 1.65 C4.9 1.78, 4.94 1.92, 4.96 2.07 C4.99 2.21, 5 2.43, 5 2.5 C5.01 2.57, 5.01 2.43, 5 2.5" stroke="#000000" stroke-width="2" fill="none"></path></g><g stroke-linecap="round" transform="translate(87.00348740118471 170.20004294214422) rotate(0 2.5009765625 2.5009765625)"><path d="M5 2.5 C5 2.65, 4.99 2.79, 4.96 2.94 C4.94 3.08, 4.9 3.22, 4.85 3.36 C4.8 3.49, 4.74 3.63, 4.67 3.75 C4.59 3.88, 4.51 4, 4.42 4.11 C4.32 4.22, 4.22 4.32, 4.11 4.42 C4 4.51, 3.88 4.59, 3.75 4.67 C3.63 4.74, 3.49 4.8, 3.36 4.85 C3.22 4.9, 3.08 4.94, 2.94 4.96 C2.79 4.99, 2.65 5, 2.5 5 C2.36 5, 2.21 4.99, 2.07 4.96 C1.92 4.94, 1.78 4.9, 1.65 4.85 C1.51 4.8, 1.38 4.74, 1.25 4.67 C1.13 4.59, 1 4.51, 0.89 4.42 C0.78 4.32, 0.68 4.22, 0.59 4.11 C0.49 4, 0.41 3.88, 0.34 3.75 C0.26 3.63, 0.2 3.49, 0.15 3.36 C0.1 3.22, 0.06 3.08, 0.04 2.94 C0.01 2.79, 0 2.65, 0 2.5 C0 2.36, 0.01 2.21, 0.04 2.07 C0.06 1.92, 0.1 1.78, 0.15 1.65 C0.2 1.51, 0.26 1.38, 0.34 1.25 C0.41 1.13, 0.49 1, 0.59 0.89 C0.68 0.78, 0.78 0.68, 0.89 0.59 C1 0.49, 1.13 0.41, 1.25 0.34 C1.38 0.26, 1.51 0.2, 1.65 0.15 C1.78 0.1, 1.92 0.06, 2.07 0.04 C2.21 0.01, 2.36 0, 2.5 0 C2.65 0, 2.79 0.01, 2.94 0.04 C3.08 0.06, 3.22 0.1, 3.36 0.15 C3.49 0.2, 3.63 0.26, 3.75 0.34 C3.88 0.41, 4 0.49, 4.11 0.59 C4.22 0.68, 4.32 0.78, 4.42 0.89 C4.51 1, 4.59 1.13, 4.67 1.25 C4.74 1.38, 4.8 1.51, 4.85 1.65 C4.9 1.78, 4.94 1.92, 4.96 2.07 C4.99 2.21, 5 2.43, 5 2.5 C5.01 2.57, 5.01 2.43, 5 2.5" stroke="none" stroke-width="0" fill="#fab005"></path><path d="M5 2.5 C5 2.65, 4.99 2.79, 4.96 2.94 C4.94 3.08, 4.9 3.22, 4.85 3.36 C4.8 3.49, 4.74 3.63, 4.67 3.75 C4.59 3.88, 4.51 4, 4.42 4.11 C4.32 4.22, 4.22 4.32, 4.11 4.42 C4 4.51, 3.88 4.59, 3.75 4.67 C3.63 4.74, 3.49 4.8, 3.36 4.85 C3.22 4.9, 3.08 4.94, 2.94 4.96 C2.79 4.99, 2.65 5, 2.5 5 C2.36 5, 2.21 4.99, 2.07 4.96 C1.92 4.94, 1.78 4.9, 1.65 4.85 C1.51 4.8, 1.38 4.74, 1.25 4.67 C1.13 4.59, 1 4.51, 0.89 4.42 C0.78 4.32, 0.68 4.22, 0.59 4.11 C0.49 4, 0.41 3.88, 0.34 3.75 C0.26 3.63, 0.2 3.49, 0.15 3.36 C0.1 3.22, 0.06 3.08, 0.04 2.94 C0.01 2.79, 0 2.65, 0 2.5 C0 2.36, 0.01 2.21, 0.04 2.07 C0.06 1.92, 0.1 1.78, 0.15 1.65 C0.2 1.51, 0.26 1.38, 0.34 1.25 C0.41 1.13, 0.49 1, 0.59 0.89 C0.68 0.78, 0.78 0.68, 0.89 0.59 C1 0.49, 1.13 0.41, 1.25 0.34 C1.38 0.26, 1.51 0.2, 1.65 0.15 C1.78 0.1, 1.92 0.06, 2.07 0.04 C2.21 0.01, 2.36 0, 2.5 0 C2.65 0, 2.79 0.01, 2.94 0.04 C3.08 0.06, 3.22 0.1, 3.36 0.15 C3.49 0.2, 3.63 0.26, 3.75 0.34 C3.88 0.41, 4 0.49, 4.11 0.59 C4.22 0.68, 4.32 0.78, 4.42 0.89 C4.51 1, 4.59 1.13, 4.67 1.25 C4.74 1.38, 4.8 1.51, 4.85 1.65 C4.9 1.78, 4.94 1.92, 4.96 2.07 C4.99 2.21, 5 2.43, 5 2.5 C5.01 2.57, 5.01 2.43, 5 2.5" stroke="#000000" stroke-width="2" fill="none"></path></g><g stroke-linecap="round" transform="translate(97.7169038675309 170.6507640959904) rotate(0 2.5009765625 2.5009765625)"><path d="M5 2.5 C5 2.65, 4.99 2.79, 4.96 2.94 C4.94 3.08, 4.9 3.22, 4.85 3.36 C4.8 3.49, 4.74 3.63, 4.67 3.75 C4.59 3.88, 4.51 4, 4.42 4.11 C4.32 4.22, 4.22 4.32, 4.11 4.42 C4 4.51, 3.88 4.59, 3.75 4.67 C3.63 4.74, 3.49 4.8, 3.36 4.85 C3.22 4.9, 3.08 4.94, 2.94 4.96 C2.79 4.99, 2.65 5, 2.5 5 C2.36 5, 2.21 4.99, 2.07 4.96 C1.92 4.94, 1.78 4.9, 1.65 4.85 C1.51 4.8, 1.38 4.74, 1.25 4.67 C1.13 4.59, 1 4.51, 0.89 4.42 C0.78 4.32, 0.68 4.22, 0.59 4.11 C0.49 4, 0.41 3.88, 0.34 3.75 C0.26 3.63, 0.2 3.49, 0.15 3.36 C0.1 3.22, 0.06 3.08, 0.04 2.94 C0.01 2.79, 0 2.65, 0 2.5 C0 2.36, 0.01 2.21, 0.04 2.07 C0.06 1.92, 0.1 1.78, 0.15 1.65 C0.2 1.51, 0.26 1.38, 0.34 1.25 C0.41 1.13, 0.49 1, 0.59 0.89 C0.68 0.78, 0.78 0.68, 0.89 0.59 C1 0.49, 1.13 0.41, 1.25 0.34 C1.38 0.26, 1.51 0.2, 1.65 0.15 C1.78 0.1, 1.92 0.06, 2.07 0.04 C2.21 0.01, 2.36 0, 2.5 0 C2.65 0, 2.79 0.01, 2.94 0.04 C3.08 0.06, 3.22 0.1, 3.36 0.15 C3.49 0.2, 3.63 0.26, 3.75 0.34 C3.88 0.41, 4 0.49, 4.11 0.59 C4.22 0.68, 4.32 0.78, 4.42 0.89 C4.51 1, 4.59 1.13, 4.67 1.25 C4.74 1.38, 4.8 1.51, 4.85 1.65 C4.9 1.78, 4.94 1.92, 4.96 2.07 C4.99 2.21, 5 2.43, 5 2.5 C5.01 2.57, 5.01 2.43, 5 2.5" stroke="none" stroke-width="0" fill="#40c057"></path><path d="M5 2.5 C5 2.65, 4.99 2.79, 4.96 2.94 C4.94 3.08, 4.9 3.22, 4.85 3.36 C4.8 3.49, 4.74 3.63, 4.67 3.75 C4.59 3.88, 4.51 4, 4.42 4.11 C4.32 4.22, 4.22 4.32, 4.11 4.42 C4 4.51, 3.88 4.59, 3.75 4.67 C3.63 4.74, 3.49 4.8, 3.36 4.85 C3.22 4.9, 3.08 4.94, 2.94 4.96 C2.79 4.99, 2.65 5, 2.5 5 C2.36 5, 2.21 4.99, 2.07 4.96 C1.92 4.94, 1.78 4.9, 1.65 4.85 C1.51 4.8, 1.38 4.74, 1.25 4.67 C1.13 4.59, 1 4.51, 0.89 4.42 C0.78 4.32, 0.68 4.22, 0.59 4.11 C0.49 4, 0.41 3.88, 0.34 3.75 C0.26 3.63, 0.2 3.49, 0.15 3.36 C0.1 3.22, 0.06 3.08, 0.04 2.94 C0.01 2.79, 0 2.65, 0 2.5 C0 2.36, 0.01 2.21, 0.04 2.07 C0.06 1.92, 0.1 1.78, 0.15 1.65 C0.2 1.51, 0.26 1.38, 0.34 1.25 C0.41 1.13, 0.49 1, 0.59 0.89 C0.68 0.78, 0.78 0.68, 0.89 0.59 C1 0.49, 1.13 0.41, 1.25 0.34 C1.38 0.26, 1.51 0.2, 1.65 0.15 C1.78 0.1, 1.92 0.06, 2.07 0.04 C2.21 0.01, 2.36 0, 2.5 0 C2.65 0, 2.79 0.01, 2.94 0.04 C3.08 0.06, 3.22 0.1, 3.36 0.15 C3.49 0.2, 3.63 0.26, 3.75 0.34 C3.88 0.41, 4 0.49, 4.11 0.59 C4.22 0.68, 4.32 0.78, 4.42 0.89 C4.51 1, 4.59 1.13, 4.67 1.25 C4.74 1.38, 4.8 1.51, 4.85 1.65 C4.9 1.78, 4.94 1.92, 4.96 2.07 C4.99 2.21, 5 2.43, 5 2.5 C5.01 2.57, 5.01 2.43, 5 2.5" stroke="#000000" stroke-width="2" fill="none"></path></g><g stroke-opacity="0.9" fill-opacity="0.9" stroke-linecap="round" transform="translate(113.74396485715812 186.70313297400625) rotate(0 21.36010126968786 21.360101269687874)"><path d="M42.72 21.36 C42.72 22.6, 42.61 23.85, 42.4 25.07 C42.18 26.29, 41.85 27.5, 41.43 28.67 C41.01 29.83, 40.48 30.97, 39.86 32.04 C39.24 33.11, 38.52 34.14, 37.72 35.09 C36.93 36.04, 36.04 36.93, 35.09 37.72 C34.14 38.52, 33.11 39.24, 32.04 39.86 C30.97 40.48, 29.83 41.01, 28.67 41.43 C27.5 41.85, 26.29 42.18, 25.07 42.4 C23.85 42.61, 22.6 42.72, 21.36 42.72 C20.12 42.72, 18.87 42.61, 17.65 42.4 C16.43 42.18, 15.22 41.85, 14.05 41.43 C12.89 41.01, 11.75 40.48, 10.68 39.86 C9.61 39.24, 8.58 38.52, 7.63 37.72 C6.68 36.93, 5.79 36.04, 5 35.09 C4.2 34.14, 3.48 33.11, 2.86 32.04 C2.24 30.97, 1.71 29.83, 1.29 28.67 C0.87 27.5, 0.54 26.29, 0.32 25.07 C0.11 23.85, 0 22.6, 0 21.36 C0 20.12, 0.11 18.87, 0.32 17.65 C0.54 16.43, 0.87 15.22, 1.29 14.05 C1.71 12.89, 2.24 11.75, 2.86 10.68 C3.48 9.61, 4.2 8.58, 5 7.63 C5.79 6.68, 6.68 5.79, 7.63 5 C8.58 4.2, 9.61 3.48, 10.68 2.86 C11.75 2.24, 12.89 1.71, 14.05 1.29 C15.22 0.87, 16.43 0.54, 17.65 0.32 C18.87 0.11, 20.12 0, 21.36 0 C22.6 0, 23.85 0.11, 25.07 0.32 C26.29 0.54, 27.5 0.87, 28.67 1.29 C29.83 1.71, 30.97 2.24, 32.04 2.86 C33.11 3.48, 34.14 4.2, 35.09 5 C36.04 5.79, 36.93 6.68, 37.72 7.63 C38.52 8.58, 39.24 9.61, 39.86 10.68 C40.48 11.75, 41.01 12.89, 41.43 14.05 C41.85 15.22, 42.18 16.43, 42.4 17.65 C42.61 18.87, 42.67 20.74, 42.72 21.36 C42.77 21.98, 42.77 20.74, 42.72 21.36" stroke="none" stroke-width="0" fill="#04aaf7"></path><path d="M42.72 21.36 C42.72 22.6, 42.61 23.85, 42.4 25.07 C42.18 26.29, 41.85 27.5, 41.43 28.67 C41.01 29.83, 40.48 30.97, 39.86 32.04 C39.24 33.11, 38.52 34.14, 37.72 35.09 C36.93 36.04, 36.04 36.93, 35.09 37.72 C34.14 38.52, 33.11 39.24, 32.04 39.86 C30.97 40.48, 29.83 41.01, 28.67 41.43 C27.5 41.85, 26.29 42.18, 25.07 42.4 C23.85 42.61, 22.6 42.72, 21.36 42.72 C20.12 42.72, 18.87 42.61, 17.65 42.4 C16.43 42.18, 15.22 41.85, 14.05 41.43 C12.89 41.01, 11.75 40.48, 10.68 39.86 C9.61 39.24, 8.58 38.52, 7.63 37.72 C6.68 36.93, 5.79 36.04, 5 35.09 C4.2 34.14, 3.48 33.11, 2.86 32.04 C2.24 30.97, 1.71 29.83, 1.29 28.67 C0.87 27.5, 0.54 26.29, 0.32 25.07 C0.11 23.85, 0 22.6, 0 21.36 C0 20.12, 0.11 18.87, 0.32 17.65 C0.54 16.43, 0.87 15.22, 1.29 14.05 C1.71 12.89, 2.24 11.75, 2.86 10.68 C3.48 9.61, 4.2 8.58, 5 7.63 C5.79 6.68, 6.68 5.79, 7.63 5 C8.58 4.2, 9.61 3.48, 10.68 2.86 C11.75 2.24, 12.89 1.71, 14.05 1.29 C15.22 0.87, 16.43 0.54, 17.65 0.32 C18.87 0.11, 20.12 0, 21.36 0 C22.6 0, 23.85 0.11, 25.07 0.32 C26.29 0.54, 27.5 0.87, 28.67 1.29 C29.83 1.71, 30.97 2.24, 32.04 2.86 C33.11 3.48, 34.14 4.2, 35.09 5 C36.04 5.79, 36.93 6.68, 37.72 7.63 C38.52 8.58, 39.24 9.61, 39.86 10.68 C40.48 11.75, 41.01 12.89, 41.43 14.05 C41.85 15.22, 42.18 16.43, 42.4 17.65 C42.61 18.87, 42.67 20.74, 42.72 21.36 C42.77 21.98, 42.77 20.74, 42.72 21.36" stroke="#000000" stroke-width="2" fill="none"></path></g><g stroke-linecap="round"><g transform="translate(140.82212891913372 202.92748503846386) rotate(0 -3.3114080732230065 5.9489359900645695)" fill-rule="evenodd"><path d="M0 0 L-1.83 -0.41 L-7.57 -6.27 L-11.36 -4.35 L-12.61 2.37 L-11.27 6.74 L-17.42 8.89 L-17.2 13.64 L-12.38 13.35 L-8.7 9.48 L-3.62 17.87 L-0.42 18.17 L-3.78 4.8 L1.39 4.35 L3.16 5.87 L9.24 5.87 L10.8 0.63 L4.22 1.11 L5.49 -5.76 L2.47 -5.35 L-0.24 -0.92 L0 0" stroke="none" stroke-width="0" fill="#40c057" fill-rule="evenodd"></path><path d="M0 0 C-0.66 -0.15, -1.31 -0.3, -1.83 -0.41 M0 0 C-0.49 -0.11, -0.98 -0.22, -1.83 -0.41 M-1.83 -0.41 C-4.12 -2.75, -6.41 -5.08, -7.57 -6.27 M-1.83 -0.41 C-3.38 -2, -4.93 -3.58, -7.57 -6.27 M-7.57 -6.27 C-8.99 -5.55, -10.41 -4.83, -11.36 -4.35 M-7.57 -6.27 C-8.39 -5.86, -9.21 -5.44, -11.36 -4.35 M-11.36 -4.35 C-11.74 -2.3, -12.12 -0.25, -12.61 2.37 M-11.36 -4.35 C-11.76 -2.19, -12.16 -0.04, -12.61 2.37 M-12.61 2.37 C-12.13 3.94, -11.65 5.51, -11.27 6.74 M-12.61 2.37 C-12.15 3.86, -11.7 5.35, -11.27 6.74 M-11.27 6.74 C-13.71 7.59, -16.14 8.44, -17.42 8.89 M-11.27 6.74 C-13.71 7.59, -16.15 8.44, -17.42 8.89 M-17.42 8.89 C-17.34 10.72, -17.25 12.56, -17.2 13.64 M-17.42 8.89 C-17.36 10.29, -17.29 11.69, -17.2 13.64 M-17.2 13.64 C-15.56 13.54, -13.91 13.44, -12.38 13.35 M-17.2 13.64 C-15.52 13.54, -13.84 13.44, -12.38 13.35 M-12.38 13.35 C-11.12 12.02, -9.86 10.7, -8.7 9.48 M-12.38 13.35 C-11.27 12.18, -10.16 11.01, -8.7 9.48 M-8.7 9.48 C-7.34 11.72, -5.98 13.97, -3.62 17.87 M-8.7 9.48 C-6.94 12.39, -5.18 15.3, -3.62 17.87 M-3.62 17.87 C-2.91 17.93, -2.21 18, -0.42 18.17 M-3.62 17.87 C-2.82 17.94, -2.01 18.02, -0.42 18.17 M-0.42 18.17 C-1.29 14.71, -2.16 11.25, -3.78 4.8 M-0.42 18.17 C-1.68 13.16, -2.94 8.14, -3.78 4.8 M-3.78 4.8 C-2.63 4.7, -1.49 4.6, 1.39 4.35 M-3.78 4.8 C-1.72 4.62, 0.33 4.44, 1.39 4.35 M1.39 4.35 C1.84 4.74, 2.3 5.13, 3.16 5.87 M1.39 4.35 C1.98 4.86, 2.58 5.37, 3.16 5.87 M3.16 5.87 C4.7 5.87, 6.24 5.87, 9.24 5.87 M3.16 5.87 C4.79 5.87, 6.41 5.87, 9.24 5.87 M9.24 5.87 C9.81 3.97, 10.37 2.06, 10.8 0.63 M9.24 5.87 C9.79 4.03, 10.33 2.2, 10.8 0.63 M10.8 0.63 C9.26 0.75, 7.72 0.86, 4.22 1.11 M10.8 0.63 C8.5 0.8, 6.19 0.97, 4.22 1.11 M4.22 1.11 C4.64 -1.19, 5.07 -3.49, 5.49 -5.76 M4.22 1.11 C4.54 -0.65, 4.87 -2.4, 5.49 -5.76 M5.49 -5.76 C4.32 -5.6, 3.16 -5.44, 2.47 -5.35 M5.49 -5.76 C4.87 -5.68, 4.25 -5.59, 2.47 -5.35 M2.47 -5.35 C1.7 -4.08, 0.92 -2.81, -0.24 -0.92 M2.47 -5.35 C1.65 -4, 0.82 -2.65, -0.24 -0.92 M-0.24 -0.92 C-0.16 -0.61, -0.08 -0.29, 0 0 M-0.24 -0.92 C-0.15 -0.59, -0.07 -0.27, 0 0 M0 0 C0 0, 0 0, 0 0 M0 0 C0 0, 0 0, 0 0" stroke="#087f5b" stroke-width="2" fill="none"></path></g></g><g stroke-linecap="round"><g stroke-opacity="0.9" fill-opacity="0.9" transform="translate(114.80302733118566 207.66600653718726) rotate(0 21.04755788613612 0)"><path d="M0 0 C11.22 0, 22.45 0, 42.1 0 M0 0 C9.8 0, 19.59 0, 42.1 0" stroke="#000000" stroke-width="2" fill="none"></path></g></g><g stroke-linecap="round"><g stroke-opacity="0.9" fill-opacity="0.9" transform="translate(119.89835636096001 192.2314776102211) rotate(0 14.65930330192431 2.593116626464507)"><path d="M0 0 C0.25 0.72, 0.49 1.45, 0.77 2.28 M0 0 C0.2 0.6, 0.41 1.2, 0.77 2.28 M0.77 2.28 C1.8 2.87, 2.83 3.46, 4.1 4.19 M0.77 2.28 C1.61 2.76, 2.45 3.24, 4.1 4.19 M4.1 4.19 C5.8 4.63, 7.5 5.07, 8.54 5.34 M4.1 4.19 C5.09 4.44, 6.08 4.7, 8.54 5.34 M8.54 5.34 C10.09 5.37, 11.64 5.39, 15.48 5.45 M8.54 5.34 C10.38 5.37, 12.23 5.4, 15.48 5.45 M15.48 5.45 C18.25 5.2, 21.03 4.94, 23.58 4.71 M15.48 5.45 C17.42 5.27, 19.36 5.1, 23.58 4.71 M23.58 4.71 C24.54 4.17, 25.49 3.63, 28.32 2.03 M23.58 4.71 C24.53 4.18, 25.48 3.64, 28.32 2.03 M28.32 2.03 C28.56 1.47, 28.81 0.9, 29.32 -0.26 M28.32 2.03 C28.64 1.3, 28.96 0.57, 29.32 -0.26" stroke="#000000" stroke-width="2" fill="none"></path></g></g><g stroke-opacity="0.9" fill-opacity="0.9" stroke-linecap="round" transform="translate(127.97227228487947 185.32060334441357) rotate(0 7.764217176558056 22.41115194065472)"><path d="M15.53 22.41 C15.53 23.71, 15.49 25.03, 15.41 26.3 C15.33 27.58, 15.21 28.86, 15.06 30.08 C14.91 31.3, 14.71 32.49, 14.49 33.62 C14.26 34.74, 14 35.82, 13.71 36.82 C13.42 37.81, 13.1 38.75, 12.75 39.58 C12.41 40.41, 12.04 41.17, 11.65 41.82 C11.26 42.47, 10.84 43.03, 10.42 43.47 C10 43.91, 9.56 44.26, 9.11 44.48 C8.67 44.71, 8.21 44.82, 7.76 44.82 C7.31 44.82, 6.86 44.71, 6.42 44.48 C5.97 44.26, 5.53 43.91, 5.11 43.47 C4.69 43.03, 4.27 42.47, 3.88 41.82 C3.49 41.17, 3.12 40.41, 2.77 39.58 C2.43 38.75, 2.11 37.81, 1.82 36.82 C1.53 35.82, 1.26 34.74, 1.04 33.62 C0.82 32.49, 0.62 31.3, 0.47 30.08 C0.31 28.86, 0.2 27.58, 0.12 26.3 C0.04 25.03, 0 23.71, 0 22.41 C0 21.11, 0.04 19.8, 0.12 18.52 C0.2 17.24, 0.31 15.97, 0.47 14.75 C0.62 13.53, 0.82 12.33, 1.04 11.21 C1.26 10.08, 1.53 9, 1.82 8.01 C2.11 7.01, 2.43 6.08, 2.77 5.24 C3.12 4.41, 3.49 3.65, 3.88 3 C4.27 2.35, 4.69 1.8, 5.11 1.35 C5.53 0.91, 5.97 0.57, 6.42 0.34 C6.86 0.12, 7.31 0, 7.76 0 C8.21 0, 8.67 0.12, 9.11 0.34 C9.56 0.57, 10 0.91, 10.42 1.35 C10.84 1.8, 11.26 2.35, 11.65 3 C12.04 3.65, 12.41 4.41, 12.75 5.24 C13.1 6.08, 13.42 7.01, 13.71 8.01 C14 9, 14.26 10.08, 14.49 11.21 C14.71 12.33, 14.91 13.53, 15.06 14.75 C15.21 15.97, 15.33 17.24, 15.41 18.52 C15.49 19.8, 15.51 21.76, 15.53 22.41 C15.55 23.06, 15.55 21.76, 15.53 22.41" stroke="#000000" stroke-width="2" fill="none"></path></g><g stroke-linecap="round"><g stroke-opacity="0.9" fill-opacity="0.9" transform="translate(121.4143078705859 223.968569668662) rotate(0 14.65930330192431 -2.6770512214207827)"><path d="M0 0 C1.31 -1.38, 2.62 -2.76, 4.1 -4.32 M0 0 C1.18 -1.25, 2.37 -2.49, 4.1 -4.32 M4.1 -4.32 C5.74 -4.76, 7.39 -5.21, 8.54 -5.52 M4.1 -4.32 C5.05 -4.58, 6 -4.83, 8.54 -5.52 M8.54 -5.52 C10.83 -5.55, 13.12 -5.59, 15.48 -5.63 M8.54 -5.52 C10.12 -5.54, 11.69 -5.57, 15.48 -5.63 M15.48 -5.63 C18.44 -5.35, 21.4 -5.07, 23.58 -4.86 M15.48 -5.63 C17.71 -5.42, 19.94 -5.21, 23.58 -4.86 M23.58 -4.86 C25.17 -3.94, 26.75 -3.01, 28.32 -2.1 M23.58 -4.86 C25.05 -4.01, 26.51 -3.15, 28.32 -2.1 M28.32 -2.1 C28.64 -1.34, 28.96 -0.58, 29.32 0.27 M28.32 -2.1 C28.62 -1.37, 28.93 -0.65, 29.32 0.27" stroke="#000000" stroke-width="2" fill="none"></path></g></g><g stroke-linecap="round"><g transform="translate(601.0568319595855 359.8374686529853) rotate(0 43.929293631071914 47.84844197953345)" fill-rule="evenodd"><path d="M0 0 L0.29 86.05 L-0.11 96.06 L-0.24 95.58 L1.28 98.35 L11.05 102.07 L20.32 103.67 L46.98 104.78 L72.46 103 L80.7 100.98 L85.99 98.74 L87.78 97.17 L88.06 -1.3 L87.48 -0.34 L85.37 -2.78 L77.2 -5.93 L64.04 -7.64 L42.71 -9.08 L20.92 -7.85 L11.22 -5.92 L3.78 -3.68 L0.79 -1.61 L0 0" stroke="none" stroke-width="0" fill="#228be6" fill-rule="evenodd"></path><path d="M0 0 C0.05 14.34, 0.29 70.08, 0.29 86.05 C0.29 102.03, -0.7 93.51, 0.01 95.85 C0.72 98.19, 1.16 98.78, 4.54 100.08 C7.93 101.39, 13.24 102.88, 20.32 103.67 C27.39 104.45, 38.29 104.89, 46.98 104.78 C55.67 104.67, 65.95 104.01, 72.46 103 C78.96 101.99, 83.42 100.05, 85.99 98.74 C88.57 97.43, 87.54 97.06, 87.9 95.15 C88.26 93.24, 88.16 101.92, 88.17 87.26 C88.18 72.61, 88.07 21.82, 87.96 7.22 C87.84 -7.38, 88.51 1.62, 87.48 -0.34 C86.46 -2.31, 84.75 -3.46, 81.82 -4.57 C78.89 -5.68, 76.41 -6.27, 69.89 -7.02 C63.37 -7.77, 50.87 -8.94, 42.71 -9.08 C34.55 -9.22, 27.4 -8.75, 20.92 -7.85 C14.43 -6.95, 7.27 -4.98, 3.78 -3.68 C0.28 -2.39, 0.58 -0.67, -0.05 -0.05 C-0.68 0.56, -0.01 -0.01, 0 0 M0 0 C0.05 14.34, 0.29 70.08, 0.29 86.05 C0.29 102.03, -0.7 93.51, 0.01 95.85 C0.72 98.19, 1.16 98.78, 4.54 100.08 C7.93 101.39, 13.24 102.88, 20.32 103.67 C27.39 104.45, 38.29 104.89, 46.98 104.78 C55.67 104.67, 65.95 104.01, 72.46 103 C78.96 101.99, 83.42 100.05, 85.99 98.74 C88.57 97.43, 87.54 97.06, 87.9 95.15 C88.26 93.24, 88.16 101.92, 88.17 87.26 C88.18 72.61, 88.07 21.82, 87.96 7.22 C87.84 -7.38, 88.51 1.62, 87.48 -0.34 C86.46 -2.31, 84.75 -3.46, 81.82 -4.57 C78.89 -5.68, 76.41 -6.27, 69.89 -7.02 C63.37 -7.77, 50.87 -8.94, 42.71 -9.08 C34.55 -9.22, 27.4 -8.75, 20.92 -7.85 C14.43 -6.95, 7.27 -4.98, 3.78 -3.68 C0.28 -2.39, 0.58 -0.67, -0.05 -0.05 C-0.68 0.56, -0.01 -0.01, 0 0" stroke="#0a11d3" stroke-width="2" fill="none"></path></g></g><g stroke-linecap="round"><g transform="translate(601.7441935490829 425.12759668377294) rotate(0 44.15404313987261 4.507836139469248)"><path d="M0 0 C0.39 0.65, 0.27 2.71, 2.33 3.91 C4.39 5.1, 8.46 6.31, 12.36 7.18 C16.26 8.06, 20 8.81, 25.71 9.17 C31.42 9.53, 39.07 9.53, 46.63 9.35 C54.18 9.17, 64.59 9.06, 71.04 8.08 C77.48 7.11, 82.41 4.91, 85.29 3.49 C88.17 2.07, 87.81 0.21, 88.31 -0.45 M0 0 C0.39 0.65, 0.27 2.71, 2.33 3.91 C4.39 5.1, 8.46 6.31, 12.36 7.18 C16.26 8.06, 20 8.81, 25.71 9.17 C31.42 9.53, 39.07 9.53, 46.63 9.35 C54.18 9.17, 64.59 9.06, 71.04 8.08 C77.48 7.11, 82.41 4.91, 85.29 3.49 C88.17 2.07, 87.81 0.21, 88.31 -0.45" stroke="#0a11d3" stroke-width="2" fill="none"></path></g></g><g stroke-linecap="round"><g transform="translate(600.6504520370214 392.0534421217012) rotate(0 44.15404313987261 4.507836139469248)"><path d="M0 0 C0.39 0.65, 0.27 2.71, 2.33 3.91 C4.39 5.1, 8.46 6.31, 12.36 7.18 C16.26 8.06, 20 8.81, 25.71 9.17 C31.42 9.53, 39.07 9.53, 46.63 9.35 C54.18 9.17, 64.59 9.06, 71.04 8.08 C77.48 7.11, 82.41 4.91, 85.29 3.49 C88.17 2.07, 87.81 0.21, 88.31 -0.45 M0 0 C0.39 0.65, 0.27 2.71, 2.33 3.91 C4.39 5.1, 8.46 6.31, 12.36 7.18 C16.26 8.06, 20 8.81, 25.71 9.17 C31.42 9.53, 39.07 9.53, 46.63 9.35 C54.18 9.17, 64.59 9.06, 71.04 8.08 C77.48 7.11, 82.41 4.91, 85.29 3.49 C88.17 2.07, 87.81 0.21, 88.31 -0.45" stroke="#0a11d3" stroke-width="2" fill="none"></path></g></g><g stroke-linecap="round" transform="translate(599.5296293508596 351.8127724258886) rotate(0 43.825373054270926 8.863351988406805)"><path d="M87.65 8.86 C87.65 9.38, 87.43 9.9, 86.98 10.4 C86.54 10.91, 85.88 11.41, 85.01 11.89 C84.14 12.38, 83.05 12.85, 81.78 13.3 C80.51 13.74, 79.03 14.17, 77.4 14.56 C75.77 14.95, 73.94 15.32, 72 15.65 C70.05 15.98, 67.93 16.28, 65.74 16.54 C63.54 16.8, 61.2 17.02, 58.81 17.19 C56.43 17.37, 53.93 17.5, 51.44 17.59 C48.94 17.68, 46.36 17.73, 43.83 17.73 C41.29 17.73, 38.71 17.68, 36.22 17.59 C33.72 17.5, 31.22 17.37, 28.84 17.19 C26.45 17.02, 24.11 16.8, 21.91 16.54 C19.72 16.28, 17.6 15.98, 15.65 15.65 C13.71 15.32, 11.88 14.95, 10.25 14.56 C8.62 14.17, 7.14 13.74, 5.87 13.3 C4.6 12.85, 3.51 12.38, 2.64 11.89 C1.78 11.41, 1.11 10.91, 0.67 10.4 C0.23 9.9, 0 9.38, 0 8.86 C0 8.35, 0.23 7.83, 0.67 7.32 C1.11 6.82, 1.78 6.31, 2.64 5.83 C3.51 5.35, 4.6 4.88, 5.87 4.43 C7.14 3.99, 8.62 3.56, 10.25 3.17 C11.88 2.77, 13.71 2.4, 15.65 2.07 C17.6 1.74, 19.72 1.44, 21.91 1.19 C24.11 0.93, 26.45 0.71, 28.84 0.53 C31.22 0.36, 33.72 0.22, 36.22 0.13 C38.71 0.05, 41.29 0, 43.83 0 C46.36 0, 48.94 0.05, 51.44 0.13 C53.93 0.22, 56.43 0.36, 58.81 0.53 C61.2 0.71, 63.54 0.93, 65.74 1.19 C67.93 1.44, 70.05 1.74, 72 2.07 C73.94 2.4, 75.77 2.77, 77.4 3.17 C79.03 3.56, 80.51 3.99, 81.78 4.43 C83.05 4.88, 84.14 5.35, 85.01 5.83 C85.88 6.31, 86.54 6.82, 86.98 7.32 C87.43 7.83, 87.54 8.61, 87.65 8.86 C87.76 9.12, 87.76 8.61, 87.65 8.86" stroke="none" stroke-width="0" fill="#fff"></path><path d="M87.65 8.86 C87.65 9.38, 87.43 9.9, 86.98 10.4 C86.54 10.91, 85.88 11.41, 85.01 11.89 C84.14 12.38, 83.05 12.85, 81.78 13.3 C80.51 13.74, 79.03 14.17, 77.4 14.56 C75.77 14.95, 73.94 15.32, 72 15.65 C70.05 15.98, 67.93 16.28, 65.74 16.54 C63.54 16.8, 61.2 17.02, 58.81 17.19 C56.43 17.37, 53.93 17.5, 51.44 17.59 C48.94 17.68, 46.36 17.73, 43.83 17.73 C41.29 17.73, 38.71 17.68, 36.22 17.59 C33.72 17.5, 31.22 17.37, 28.84 17.19 C26.45 17.02, 24.11 16.8, 21.91 16.54 C19.72 16.28, 17.6 15.98, 15.65 15.65 C13.71 15.32, 11.88 14.95, 10.25 14.56 C8.62 14.17, 7.14 13.74, 5.87 13.3 C4.6 12.85, 3.51 12.38, 2.64 11.89 C1.78 11.41, 1.11 10.91, 0.67 10.4 C0.23 9.9, 0 9.38, 0 8.86 C0 8.35, 0.23 7.83, 0.67 7.32 C1.11 6.82, 1.78 6.31, 2.64 5.83 C3.51 5.35, 4.6 4.88, 5.87 4.43 C7.14 3.99, 8.62 3.56, 10.25 3.17 C11.88 2.77, 13.71 2.4, 15.65 2.07 C17.6 1.74, 19.72 1.44, 21.91 1.19 C24.11 0.93, 26.45 0.71, 28.84 0.53 C31.22 0.36, 33.72 0.22, 36.22 0.13 C38.71 0.05, 41.29 0, 43.83 0 C46.36 0, 48.94 0.05, 51.44 0.13 C53.93 0.22, 56.43 0.36, 58.81 0.53 C61.2 0.71, 63.54 0.93, 65.74 1.19 C67.93 1.44, 70.05 1.74, 72 2.07 C73.94 2.4, 75.77 2.77, 77.4 3.17 C79.03 3.56, 80.51 3.99, 81.78 4.43 C83.05 4.88, 84.14 5.35, 85.01 5.83 C85.88 6.31, 86.54 6.82, 86.98 7.32 C87.43 7.83, 87.54 8.61, 87.65 8.86 C87.76 9.12, 87.76 8.61, 87.65 8.86" stroke="#0a11d3" stroke-width="2" fill="none"></path></g><g stroke-linecap="round" transform="translate(671.0393616514402 376.3885753030222) rotate(0 6.423028523489904 6.970952181208077)"><path d="M12.85 6.97 C12.85 7.37, 12.81 7.78, 12.75 8.18 C12.68 8.58, 12.59 8.98, 12.46 9.36 C12.33 9.73, 12.17 10.11, 11.99 10.46 C11.8 10.81, 11.58 11.14, 11.34 11.45 C11.1 11.76, 10.84 12.05, 10.55 12.31 C10.27 12.57, 9.96 12.81, 9.63 13.01 C9.31 13.21, 8.97 13.38, 8.62 13.52 C8.27 13.66, 7.9 13.77, 7.54 13.84 C7.17 13.91, 6.79 13.94, 6.42 13.94 C6.05 13.94, 5.67 13.91, 5.31 13.84 C4.94 13.77, 4.58 13.66, 4.23 13.52 C3.88 13.38, 3.53 13.21, 3.21 13.01 C2.89 12.81, 2.58 12.57, 2.29 12.31 C2.01 12.05, 1.74 11.76, 1.5 11.45 C1.26 11.14, 1.05 10.81, 0.86 10.46 C0.67 10.11, 0.51 9.73, 0.39 9.36 C0.26 8.98, 0.16 8.58, 0.1 8.18 C0.03 7.78, 0 7.37, 0 6.97 C0 6.57, 0.03 6.16, 0.1 5.76 C0.16 5.36, 0.26 4.97, 0.39 4.59 C0.51 4.21, 0.67 3.83, 0.86 3.49 C1.05 3.14, 1.26 2.8, 1.5 2.49 C1.74 2.18, 2.01 1.89, 2.29 1.63 C2.58 1.37, 2.89 1.14, 3.21 0.93 C3.53 0.73, 3.88 0.56, 4.23 0.42 C4.58 0.28, 4.94 0.18, 5.31 0.11 C5.67 0.04, 6.05 0, 6.42 0 C6.79 0, 7.17 0.04, 7.54 0.11 C7.9 0.18, 8.27 0.28, 8.62 0.42 C8.97 0.56, 9.31 0.73, 9.63 0.93 C9.96 1.14, 10.27 1.37, 10.55 1.63 C10.84 1.89, 11.1 2.18, 11.34 2.49 C11.58 2.8, 11.8 3.14, 11.99 3.49 C12.17 3.83, 12.33 4.21, 12.46 4.59 C12.59 4.97, 12.68 5.36, 12.75 5.76 C12.81 6.16, 12.83 6.77, 12.85 6.97 C12.86 7.17, 12.86 6.77, 12.85 6.97" stroke="none" stroke-width="0" fill="#fff"></path><path d="M12.85 6.97 C12.85 7.37, 12.81 7.78, 12.75 8.18 C12.68 8.58, 12.59 8.98, 12.46 9.36 C12.33 9.73, 12.17 10.11, 11.99 10.46 C11.8 10.81, 11.58 11.14, 11.34 11.45 C11.1 11.76, 10.84 12.05, 10.55 12.31 C10.27 12.57, 9.96 12.81, 9.63 13.01 C9.31 13.21, 8.97 13.38, 8.62 13.52 C8.27 13.66, 7.9 13.77, 7.54 13.84 C7.17 13.91, 6.79 13.94, 6.42 13.94 C6.05 13.94, 5.67 13.91, 5.31 13.84 C4.94 13.77, 4.58 13.66, 4.23 13.52 C3.88 13.38, 3.53 13.21, 3.21 13.01 C2.89 12.81, 2.58 12.57, 2.29 12.31 C2.01 12.05, 1.74 11.76, 1.5 11.45 C1.26 11.14, 1.05 10.81, 0.86 10.46 C0.67 10.11, 0.51 9.73, 0.39 9.36 C0.26 8.98, 0.16 8.58, 0.1 8.18 C0.03 7.78, 0 7.37, 0 6.97 C0 6.57, 0.03 6.16, 0.1 5.76 C0.16 5.36, 0.26 4.97, 0.39 4.59 C0.51 4.21, 0.67 3.83, 0.86 3.49 C1.05 3.14, 1.26 2.8, 1.5 2.49 C1.74 2.18, 2.01 1.89, 2.29 1.63 C2.58 1.37, 2.89 1.14, 3.21 0.93 C3.53 0.73, 3.88 0.56, 4.23 0.42 C4.58 0.28, 4.94 0.18, 5.31 0.11 C5.67 0.04, 6.05 0, 6.42 0 C6.79 0, 7.17 0.04, 7.54 0.11 C7.9 0.18, 8.27 0.28, 8.62 0.42 C8.97 0.56, 9.31 0.73, 9.63 0.93 C9.96 1.14, 10.27 1.37, 10.55 1.63 C10.84 1.89, 11.1 2.18, 11.34 2.49 C11.58 2.8, 11.8 3.14, 11.99 3.49 C12.17 3.83, 12.33 4.21, 12.46 4.59 C12.59 4.97, 12.68 5.36, 12.75 5.76 C12.81 6.16, 12.83 6.77, 12.85 6.97 C12.86 7.17, 12.86 6.77, 12.85 6.97" stroke="#0a11d3" stroke-width="2" fill="none"></path></g><g stroke-linecap="round" transform="translate(671.0393616514402 406.99102916208267) rotate(0 6.423028523489904 6.970952181208077)"><path d="M12.85 6.97 C12.85 7.37, 12.81 7.78, 12.75 8.18 C12.68 8.58, 12.59 8.98, 12.46 9.36 C12.33 9.73, 12.17 10.11, 11.99 10.46 C11.8 10.81, 11.58 11.14, 11.34 11.45 C11.1 11.76, 10.84 12.05, 10.55 12.31 C10.27 12.57, 9.96 12.81, 9.63 13.01 C9.31 13.21, 8.97 13.38, 8.62 13.52 C8.27 13.66, 7.9 13.77, 7.54 13.84 C7.17 13.91, 6.79 13.94, 6.42 13.94 C6.05 13.94, 5.67 13.91, 5.31 13.84 C4.94 13.77, 4.58 13.66, 4.23 13.52 C3.88 13.38, 3.53 13.21, 3.21 13.01 C2.89 12.81, 2.58 12.57, 2.29 12.31 C2.01 12.05, 1.74 11.76, 1.5 11.45 C1.26 11.14, 1.05 10.81, 0.86 10.46 C0.67 10.11, 0.51 9.73, 0.39 9.36 C0.26 8.98, 0.16 8.58, 0.1 8.18 C0.03 7.78, 0 7.37, 0 6.97 C0 6.57, 0.03 6.16, 0.1 5.76 C0.16 5.36, 0.26 4.97, 0.39 4.59 C0.51 4.21, 0.67 3.83, 0.86 3.49 C1.05 3.14, 1.26 2.8, 1.5 2.49 C1.74 2.18, 2.01 1.89, 2.29 1.63 C2.58 1.37, 2.89 1.14, 3.21 0.93 C3.53 0.73, 3.88 0.56, 4.23 0.42 C4.58 0.28, 4.94 0.18, 5.31 0.11 C5.67 0.04, 6.05 0, 6.42 0 C6.79 0, 7.17 0.04, 7.54 0.11 C7.9 0.18, 8.27 0.28, 8.62 0.42 C8.97 0.56, 9.31 0.73, 9.63 0.93 C9.96 1.14, 10.27 1.37, 10.55 1.63 C10.84 1.89, 11.1 2.18, 11.34 2.49 C11.58 2.8, 11.8 3.14, 11.99 3.49 C12.17 3.83, 12.33 4.21, 12.46 4.59 C12.59 4.97, 12.68 5.36, 12.75 5.76 C12.81 6.16, 12.83 6.77, 12.85 6.97 C12.86 7.17, 12.86 6.77, 12.85 6.97" stroke="none" stroke-width="0" fill="#fff"></path><path d="M12.85 6.97 C12.85 7.37, 12.81 7.78, 12.75 8.18 C12.68 8.58, 12.59 8.98, 12.46 9.36 C12.33 9.73, 12.17 10.11, 11.99 10.46 C11.8 10.81, 11.58 11.14, 11.34 11.45 C11.1 11.76, 10.84 12.05, 10.55 12.31 C10.27 12.57, 9.96 12.81, 9.63 13.01 C9.31 13.21, 8.97 13.38, 8.62 13.52 C8.27 13.66, 7.9 13.77, 7.54 13.84 C7.17 13.91, 6.79 13.94, 6.42 13.94 C6.05 13.94, 5.67 13.91, 5.31 13.84 C4.94 13.77, 4.58 13.66, 4.23 13.52 C3.88 13.38, 3.53 13.21, 3.21 13.01 C2.89 12.81, 2.58 12.57, 2.29 12.31 C2.01 12.05, 1.74 11.76, 1.5 11.45 C1.26 11.14, 1.05 10.81, 0.86 10.46 C0.67 10.11, 0.51 9.73, 0.39 9.36 C0.26 8.98, 0.16 8.58, 0.1 8.18 C0.03 7.78, 0 7.37, 0 6.97 C0 6.57, 0.03 6.16, 0.1 5.76 C0.16 5.36, 0.26 4.97, 0.39 4.59 C0.51 4.21, 0.67 3.83, 0.86 3.49 C1.05 3.14, 1.26 2.8, 1.5 2.49 C1.74 2.18, 2.01 1.89, 2.29 1.63 C2.58 1.37, 2.89 1.14, 3.21 0.93 C3.53 0.73, 3.88 0.56, 4.23 0.42 C4.58 0.28, 4.94 0.18, 5.31 0.11 C5.67 0.04, 6.05 0, 6.42 0 C6.79 0, 7.17 0.04, 7.54 0.11 C7.9 0.18, 8.27 0.28, 8.62 0.42 C8.97 0.56, 9.31 0.73, 9.63 0.93 C9.96 1.14, 10.27 1.37, 10.55 1.63 C10.84 1.89, 11.1 2.18, 11.34 2.49 C11.58 2.8, 11.8 3.14, 11.99 3.49 C12.17 3.83, 12.33 4.21, 12.46 4.59 C12.59 4.97, 12.68 5.36, 12.75 5.76 C12.81 6.16, 12.83 6.77, 12.85 6.97 C12.86 7.17, 12.86 6.77, 12.85 6.97" stroke="#0a11d3" stroke-width="2" fill="none"></path></g><g stroke-linecap="round" transform="translate(671.0393616514402 440.25183033657936) rotate(0 6.423028523489904 6.970952181208077)"><path d="M12.85 6.97 C12.85 7.37, 12.81 7.78, 12.75 8.18 C12.68 8.58, 12.59 8.98, 12.46 9.36 C12.33 9.73, 12.17 10.11, 11.99 10.46 C11.8 10.81, 11.58 11.14, 11.34 11.45 C11.1 11.76, 10.84 12.05, 10.55 12.31 C10.27 12.57, 9.96 12.81, 9.63 13.01 C9.31 13.21, 8.97 13.38, 8.62 13.52 C8.27 13.66, 7.9 13.77, 7.54 13.84 C7.17 13.91, 6.79 13.94, 6.42 13.94 C6.05 13.94, 5.67 13.91, 5.31 13.84 C4.94 13.77, 4.58 13.66, 4.23 13.52 C3.88 13.38, 3.53 13.21, 3.21 13.01 C2.89 12.81, 2.58 12.57, 2.29 12.31 C2.01 12.05, 1.74 11.76, 1.5 11.45 C1.26 11.14, 1.05 10.81, 0.86 10.46 C0.67 10.11, 0.51 9.73, 0.39 9.36 C0.26 8.98, 0.16 8.58, 0.1 8.18 C0.03 7.78, 0 7.37, 0 6.97 C0 6.57, 0.03 6.16, 0.1 5.76 C0.16 5.36, 0.26 4.97, 0.39 4.59 C0.51 4.21, 0.67 3.83, 0.86 3.49 C1.05 3.14, 1.26 2.8, 1.5 2.49 C1.74 2.18, 2.01 1.89, 2.29 1.63 C2.58 1.37, 2.89 1.14, 3.21 0.93 C3.53 0.73, 3.88 0.56, 4.23 0.42 C4.58 0.28, 4.94 0.18, 5.31 0.11 C5.67 0.04, 6.05 0, 6.42 0 C6.79 0, 7.17 0.04, 7.54 0.11 C7.9 0.18, 8.27 0.28, 8.62 0.42 C8.97 0.56, 9.31 0.73, 9.63 0.93 C9.96 1.14, 10.27 1.37, 10.55 1.63 C10.84 1.89, 11.1 2.18, 11.34 2.49 C11.58 2.8, 11.8 3.14, 11.99 3.49 C12.17 3.83, 12.33 4.21, 12.46 4.59 C12.59 4.97, 12.68 5.36, 12.75 5.76 C12.81 6.16, 12.83 6.77, 12.85 6.97 C12.86 7.17, 12.86 6.77, 12.85 6.97" stroke="none" stroke-width="0" fill="#fff"></path><path d="M12.85 6.97 C12.85 7.37, 12.81 7.78, 12.75 8.18 C12.68 8.58, 12.59 8.98, 12.46 9.36 C12.33 9.73, 12.17 10.11, 11.99 10.46 C11.8 10.81, 11.58 11.14, 11.34 11.45 C11.1 11.76, 10.84 12.05, 10.55 12.31 C10.27 12.57, 9.96 12.81, 9.63 13.01 C9.31 13.21, 8.97 13.38, 8.62 13.52 C8.27 13.66, 7.9 13.77, 7.54 13.84 C7.17 13.91, 6.79 13.94, 6.42 13.94 C6.05 13.94, 5.67 13.91, 5.31 13.84 C4.94 13.77, 4.58 13.66, 4.23 13.52 C3.88 13.38, 3.53 13.21, 3.21 13.01 C2.89 12.81, 2.58 12.57, 2.29 12.31 C2.01 12.05, 1.74 11.76, 1.5 11.45 C1.26 11.14, 1.05 10.81, 0.86 10.46 C0.67 10.11, 0.51 9.73, 0.39 9.36 C0.26 8.98, 0.16 8.58, 0.1 8.18 C0.03 7.78, 0 7.37, 0 6.97 C0 6.57, 0.03 6.16, 0.1 5.76 C0.16 5.36, 0.26 4.97, 0.39 4.59 C0.51 4.21, 0.67 3.83, 0.86 3.49 C1.05 3.14, 1.26 2.8, 1.5 2.49 C1.74 2.18, 2.01 1.89, 2.29 1.63 C2.58 1.37, 2.89 1.14, 3.21 0.93 C3.53 0.73, 3.88 0.56, 4.23 0.42 C4.58 0.28, 4.94 0.18, 5.31 0.11 C5.67 0.04, 6.05 0, 6.42 0 C6.79 0, 7.17 0.04, 7.54 0.11 C7.9 0.18, 8.27 0.28, 8.62 0.42 C8.97 0.56, 9.31 0.73, 9.63 0.93 C9.96 1.14, 10.27 1.37, 10.55 1.63 C10.84 1.89, 11.1 2.18, 11.34 2.49 C11.58 2.8, 11.8 3.14, 11.99 3.49 C12.17 3.83, 12.33 4.21, 12.46 4.59 C12.59 4.97, 12.68 5.36, 12.75 5.76 C12.81 6.16, 12.83 6.77, 12.85 6.97 C12.86 7.17, 12.86 6.77, 12.85 6.97" stroke="#0a11d3" stroke-width="2" fill="none"></path></g><g transform="translate(605.6120605468751 473.00125034593043) rotate(0 43 13)"><text x="0" y="18" font-family="Virgil, Segoe UI Emoji" font-size="20px" fill="#000000" text-anchor="start" style="white-space: pre;" direction="ltr">MariaDB</text></g><g stroke-linecap="round" transform="translate(350.567108154297 43.22679050706327) rotate(0 37.5 130)"><path d="M0 0 C23.15 0, 46.3 0, 75 0 M0 0 C18.89 0, 37.77 0, 75 0 M75 0 C75 99.48, 75 198.96, 75 260 M75 0 C75 58.07, 75 116.14, 75 260 M75 260 C58.21 260, 41.43 260, 0 260 M75 260 C55.07 260, 35.13 260, 0 260 M0 260 C0 170.99, 0 81.99, 0 0 M0 260 C0 197.7, 0 135.4, 0 0" stroke="#000000" stroke-width="2" fill="none"></path></g><g transform="translate(355.567108154297 156.72679050706327) rotate(0 32.5 16.5)"><text x="32.5" y="26" font-family="Cascadia, Segoe UI Emoji" font-size="28px" fill="#000000" text-anchor="middle" style="white-space: pre;" direction="ltr">API</text></g><g stroke-linecap="round"><g transform="translate(167.0807980531415 61.904362714454265) rotate(0 89.82012538799879 27.119276257754024)"><path d="M0 0 C29.94 9.04, 149.7 45.2, 179.64 54.24 M0 0 C29.94 9.04, 149.7 45.2, 179.64 54.24" stroke="#000000" stroke-width="2" fill="none"></path></g><g transform="translate(167.0807980531415 61.904362714454265) rotate(0 89.82012538799879 27.119276257754024)"><path d="M29.95 -1.67 C18.95 -1.06, 7.95 -0.44, 0 0 M29.95 -1.67 C21.46 -1.2, 12.97 -0.72, 0 0" stroke="#000000" stroke-width="2" fill="none"></path></g><g transform="translate(167.0807980531415 61.904362714454265) rotate(0 89.82012538799879 27.119276257754024)"><path d="M24.02 17.97 C15.2 11.37, 6.37 4.77, 0 0 M24.02 17.97 C17.21 12.88, 10.4 7.78, 0 0" stroke="#000000" stroke-width="2" fill="none"></path></g><g transform="translate(167.0807980531415 61.904362714454265) rotate(0 89.82012538799879 27.119276257754024)"><path d="M149.69 55.91 C160.69 55.3, 171.69 54.68, 179.64 54.24 M149.69 55.91 C158.18 55.44, 166.67 54.96, 179.64 54.24" stroke="#000000" stroke-width="2" fill="none"></path></g><g transform="translate(167.0807980531415 61.904362714454265) rotate(0 89.82012538799879 27.119276257754024)"><path d="M155.62 36.27 C164.44 42.87, 173.27 49.47, 179.64 54.24 M155.62 36.27 C162.43 41.36, 169.24 46.46, 179.64 54.24" stroke="#000000" stroke-width="2" fill="none"></path></g></g><g stroke-linecap="round"><g transform="translate(202.52324240390632 208.86439640626278) rotate(0 71.61814579697166 -4.189551439076354)"><path d="M0 0 C23.87 -1.4, 119.36 -6.98, 143.24 -8.38 M0 0 C23.87 -1.4, 119.36 -6.98, 143.24 -8.38" stroke="#000000" stroke-width="2" fill="none"></path></g><g transform="translate(202.52324240390632 208.86439640626278) rotate(0 71.61814579697166 -4.189551439076354)"><path d="M27.54 -11.89 C21.39 -9.23, 15.24 -6.58, 0 0 M27.54 -11.89 C19.62 -8.47, 11.69 -5.05, 0 0" stroke="#000000" stroke-width="2" fill="none"></path></g><g transform="translate(202.52324240390632 208.86439640626278) rotate(0 71.61814579697166 -4.189551439076354)"><path d="M28.74 8.6 C22.32 6.68, 15.9 4.76, 0 0 M28.74 8.6 C20.47 6.12, 12.2 3.65, 0 0" stroke="#000000" stroke-width="2" fill="none"></path></g><g transform="translate(202.52324240390632 208.86439640626278) rotate(0 71.61814579697166 -4.189551439076354)"><path d="M115.69 3.51 C121.85 0.85, 128 -1.8, 143.24 -8.38 M115.69 3.51 C123.62 0.09, 131.55 -3.33, 143.24 -8.38" stroke="#000000" stroke-width="2" fill="none"></path></g><g transform="translate(202.52324240390632 208.86439640626278) rotate(0 71.61814579697166 -4.189551439076354)"><path d="M114.49 -16.98 C120.92 -15.06, 127.34 -13.13, 143.24 -8.38 M114.49 -16.98 C122.77 -14.5, 131.04 -12.03, 143.24 -8.38" stroke="#000000" stroke-width="2" fill="none"></path></g></g><g stroke-linecap="round"><g transform="translate(433.2406503180928 182.81838934825586) rotate(0 74.72310440638336 -1.8521119816314524)"><path d="M0 0 C24.91 -0.62, 124.54 -3.09, 149.45 -3.7 M0 0 C24.91 -0.62, 124.54 -3.09, 149.45 -3.7" stroke="#000000" stroke-width="2" fill="none"></path></g><g transform="translate(433.2406503180928 182.81838934825586) rotate(0 74.72310440638336 -1.8521119816314524)"><path d="M27.93 -10.96 C17.52 -6.87, 7.11 -2.79, 0 0 M27.93 -10.96 C18.07 -7.09, 8.22 -3.23, 0 0" stroke="#000000" stroke-width="2" fill="none"></path></g><g transform="translate(433.2406503180928 182.81838934825586) rotate(0 74.72310440638336 -1.8521119816314524)"><path d="M28.44 9.56 C17.84 6, 7.24 2.44, 0 0 M28.44 9.56 C18.4 6.19, 8.37 2.81, 0 0" stroke="#000000" stroke-width="2" fill="none"></path></g><g transform="translate(433.2406503180928 182.81838934825586) rotate(0 74.72310440638336 -1.8521119816314524)"><path d="M121.52 7.25 C131.93 3.17, 142.33 -0.91, 149.45 -3.7 M121.52 7.25 C131.37 3.39, 141.22 -0.48, 149.45 -3.7" stroke="#000000" stroke-width="2" fill="none"></path></g><g transform="translate(433.2406503180928 182.81838934825586) rotate(0 74.72310440638336 -1.8521119816314524)"><path d="M121.01 -13.26 C131.61 -9.7, 142.2 -6.14, 149.45 -3.7 M121.01 -13.26 C131.04 -9.89, 141.07 -6.52, 149.45 -3.7" stroke="#000000" stroke-width="2" fill="none"></path></g></g><g stroke-linecap="round"><g transform="translate(701.1341247558595 165.74102695725858) rotate(0 111.28366088867188 -40.119415283203125)"><path d="M0 0 C37.09 -13.37, 185.47 -66.87, 222.57 -80.24 M0 0 C37.09 -13.37, 185.47 -66.87, 222.57 -80.24" stroke="#000000" stroke-width="2" fill="none"></path></g><g transform="translate(701.1341247558595 165.74102695725858) rotate(0 111.28366088867188 -40.119415283203125)"><path d="M199.53 -61.03 C208.39 -68.41, 217.25 -75.8, 222.57 -80.24 M199.53 -61.03 C206.46 -66.81, 213.4 -72.59, 222.57 -80.24" stroke="#000000" stroke-width="2" fill="none"></path></g><g transform="translate(701.1341247558595 165.74102695725858) rotate(0 111.28366088867188 -40.119415283203125)"><path d="M192.57 -80.33 C204.1 -80.3, 215.64 -80.26, 222.57 -80.24 M192.57 -80.33 C201.6 -80.3, 210.63 -80.28, 222.57 -80.24" stroke="#000000" stroke-width="2" fill="none"></path></g></g><g stroke-linecap="round"><g transform="translate(702.0894470214845 186.7559500529617) rotate(0 106.98513793945312 28.179107666015625)"><path d="M0 0 C35.66 9.39, 178.31 46.97, 213.97 56.36 M0 0 C35.66 9.39, 178.31 46.97, 213.97 56.36" stroke="#000000" stroke-width="2" fill="none"></path></g><g transform="translate(702.0894470214845 186.7559500529617) rotate(0 106.98513793945312 28.179107666015625)"><path d="M184.1 59.1 C195.88 58.02, 207.66 56.94, 213.97 56.36 M184.1 59.1 C195.12 58.09, 206.15 57.08, 213.97 56.36" stroke="#000000" stroke-width="2" fill="none"></path></g><g transform="translate(702.0894470214845 186.7559500529617) rotate(0 106.98513793945312 28.179107666015625)"><path d="M189.32 39.26 C199.04 46, 208.76 52.75, 213.97 56.36 M189.32 39.26 C198.42 45.57, 207.52 51.88, 213.97 56.36" stroke="#000000" stroke-width="2" fill="none"></path></g></g><g stroke-linecap="round"><g transform="translate(702.0894470214845 200.12907322190702) rotate(0 111.28359985351562 87.88057708740234)"><path d="M0 0 C37.09 29.29, 185.47 146.47, 222.57 175.76 M0 0 C37.09 29.29, 185.47 146.47, 222.57 175.76" stroke="#000000" stroke-width="2" fill="none"></path></g><g transform="translate(702.0894470214845 200.12907322190702) rotate(0 111.28359985351562 87.88057708740234)"><path d="M194.08 166.34 C201.12 168.67, 208.17 171, 222.57 175.76 M194.08 166.34 C200.26 168.38, 206.43 170.43, 222.57 175.76" stroke="#000000" stroke-width="2" fill="none"></path></g><g transform="translate(702.0894470214845 200.12907322190702) rotate(0 111.28359985351562 87.88057708740234)"><path d="M206.8 150.24 C210.7 156.55, 214.6 162.86, 222.57 175.76 M206.8 150.24 C210.22 155.77, 213.64 161.3, 222.57 175.76" stroke="#000000" stroke-width="2" fill="none"></path></g></g><g stroke-linecap="round"><g transform="translate(644.776092529297 276.5469961955398) rotate(0 0 37.25370788574219)"><path d="M0 0 C0 12.42, 0 62.09, 0 74.51 M0 0 C0 12.42, 0 62.09, 0 74.51" stroke="#000000" stroke-width="2" fill="none"></path></g><g transform="translate(644.776092529297 276.5469961955398) rotate(0 0 37.25370788574219)"><path d="M10.26 28.19 C7.64 20.99, 5.02 13.78, 0 0 M10.26 28.19 C7.81 21.47, 5.37 14.74, 0 0" stroke="#000000" stroke-width="2" fill="none"></path></g><g transform="translate(644.776092529297 276.5469961955398) rotate(0 0 37.25370788574219)"><path d="M-10.26 28.19 C-7.64 20.99, -5.02 13.78, 0 0 M-10.26 28.19 C-7.81 21.47, -5.37 14.74, 0 0" stroke="#000000" stroke-width="2" fill="none"></path></g><g transform="translate(644.776092529297 276.5469961955398) rotate(0 0 37.25370788574219)"><path d="M-10.26 46.32 C-7.64 53.52, -5.02 60.72, 0 74.51 M-10.26 46.32 C-7.81 53.04, -5.37 59.77, 0 74.51" stroke="#000000" stroke-width="2" fill="none"></path></g><g transform="translate(644.776092529297 276.5469961955398) rotate(0 0 37.25370788574219)"><path d="M10.26 46.32 C7.64 53.52, 5.02 60.72, 0 74.51 M10.26 46.32 C7.81 53.04, 5.37 59.77, 0 74.51" stroke="#000000" stroke-width="2" fill="none"></path></g></g><g stroke-linecap="round"><g transform="translate(185.31350708007824 356.78579624436793) rotate(0 82.14926147460938 -53.97015380859375)"><path d="M0 0 C27.38 -17.99, 136.92 -89.95, 164.3 -107.94 M0 0 C27.38 -17.99, 136.92 -89.95, 164.3 -107.94" stroke="#000000" stroke-width="2" fill="none"></path></g><g transform="translate(185.31350708007824 356.78579624436793) rotate(0 82.14926147460938 -53.97015380859375)"><path d="M17.93 -24.05 C11.52 -15.46, 5.11 -6.86, 0 0 M17.93 -24.05 C12.11 -16.25, 6.29 -8.44, 0 0" stroke="#000000" stroke-width="2" fill="none"></path></g><g transform="translate(185.31350708007824 356.78579624436793) rotate(0 82.14926147460938 -53.97015380859375)"><path d="M29.19 -6.9 C18.76 -4.44, 8.33 -1.97, 0 0 M29.19 -6.9 C19.72 -4.66, 10.25 -2.42, 0 0" stroke="#000000" stroke-width="2" fill="none"></path></g><g transform="translate(185.31350708007824 356.78579624436793) rotate(0 82.14926147460938 -53.97015380859375)"><path d="M146.37 -83.89 C152.78 -92.48, 159.19 -101.08, 164.3 -107.94 M146.37 -83.89 C152.19 -91.69, 158.01 -99.5, 164.3 -107.94" stroke="#000000" stroke-width="2" fill="none"></path></g><g transform="translate(185.31350708007824 356.78579624436793) rotate(0 82.14926147460938 -53.97015380859375)"><path d="M135.1 -101.04 C145.54 -103.5, 155.97 -105.97, 164.3 -107.94 M135.1 -101.04 C144.58 -103.28, 154.05 -105.52, 164.3 -107.94" stroke="#000000" stroke-width="2" fill="none"></path></g></g></svg>